<svg xmlns="http://www.w3.org/2000/svg" xmlns:xlink="http://www.w3.org/1999/xlink" width="27.9" height="27.9" viewBox="0 0 27.9 27.9"><defs><style>.a{fill:#ff8f6b;}.b{clip-path:url(#a);}</style><clipPath id="a"><rect class="a" width="27.9" height="27.9" transform="translate(0 0)"/></clipPath></defs><g transform="translate(-418 -1683.1)"><g transform="translate(418 1683.1)"><g class="b"><path class="a" d="M10.307,20.6h7.3v7.3h-7.3ZM0,7.3H7.3V0H0ZM0,17.6H7.3V10.3H0ZM0,27.9H7.3V20.6H0ZM20.6,17.6h7.3V10.3H20.6Zm0,10.3h7.3V20.6H20.6Zm0-20.6h7.3V0H20.6ZM17.606,0h-7.3V7.3h7.3ZM13.454,15.78v-.85H12.427v.85a.169.169,0,0,1-.169.169h-.674a.169.169,0,0,1-.168-.169V12.886a1.007,1.007,0,0,1,1.007-1.008h1.035a1.007,1.007,0,0,1,1.007,1.008V15.78a.169.169,0,0,1-.169.169h-.674a.169.169,0,0,1-.168-.169m0-2.093v-.565a.232.232,0,0,0-.232-.232h-.565a.232.232,0,0,0-.232.232v.565a.232.232,0,0,0,.232.232h.565a.232.232,0,0,0,.232-.232M8.262,12.421H9.505a.4.4,0,0,0,.4-.4v-.217a.4.4,0,0,0-.4-.4H8.262a.4.4,0,0,0-.4.4v.217a.4.4,0,0,0,.4.4M10.407,10.9a.506.506,0,0,1,.505-.5H16.99a.506.506,0,0,1,.505.5V10.9h1.01V10.9A1.515,1.515,0,0,0,16.99,9.381h-.521V8.028a.169.169,0,0,0-.168-.169h-.674a.169.169,0,0,0-.168.169V9.381H14.448V8.028a.169.169,0,0,0-.169-.169h-.673a.169.169,0,0,0-.169.169V9.381h-1.01V8.028a.169.169,0,0,0-.169-.169h-.674a.169.169,0,0,0-.168.169V9.381h-.5A1.515,1.515,0,0,0,9.4,10.9V10.9h1.01Zm5.449,1.01a.4.4,0,0,0-.4.4V15.58a.4.4,0,0,0,.4.4h.216a.4.4,0,0,0,.4-.4V12.3a.4.4,0,0,0-.4-.4Zm3.785,1.527H18.4a.4.4,0,0,0-.4.4v.216a.4.4,0,0,0,.4.4h1.244a.4.4,0,0,0,.4-.4V13.83a.4.4,0,0,0-.4-.4m0,2.022H18.4a.4.4,0,0,0-.4.4v.217a.4.4,0,0,0,.4.4h1.244a.4.4,0,0,0,.4-.4v-.217a.4.4,0,0,0-.4-.4m0-4.045H18.4a.4.4,0,0,0-.4.4v.217a.4.4,0,0,0,.4.4h1.244a.4.4,0,0,0,.4-.4v-.217a.4.4,0,0,0-.4-.4M17.5,16.978a.506.506,0,0,1-.505.506H10.912a.506.506,0,0,1-.505-.506v-.007H9.4v.007a1.516,1.516,0,0,0,1.515,1.516h.5v1.362a.168.168,0,0,0,.168.168h.674a.169.169,0,0,0,.169-.168V18.494h1.01v1.362a.169.169,0,0,0,.169.168h.673a.169.169,0,0,0,.169-.168V18.494h1.011v1.362a.168.168,0,0,0,.168.168H16.3a.168.168,0,0,0,.168-.168V18.494h.521a1.516,1.516,0,0,0,1.515-1.516v-.007H17.5ZM9.9,16.069v-.217a.4.4,0,0,0-.4-.4H8.262a.4.4,0,0,0-.4.4v.217a.4.4,0,0,0,.4.4H9.505a.4.4,0,0,0,.4-.4M8.262,14.444H9.505a.4.4,0,0,0,.4-.4V13.83a.4.4,0,0,0-.4-.4H8.262a.4.4,0,0,0-.4.4v.216a.4.4,0,0,0,.4.4"/></g></g><path class="a" d="M438.6,1711v-7.3h7.3v7.3Zm-10.293,0v-7.3h7.3v7.3ZM418,1711v-7.3h7.3v7.3Zm15.627-7.877a.168.168,0,0,1-.168-.167v-1.362h-1.011v1.362a.168.168,0,0,1-.169.167H431.6a.169.169,0,0,1-.169-.167v-1.362h-1.01v1.362a.168.168,0,0,1-.169.167h-.673a.168.168,0,0,1-.168-.167v-1.362h-.5a1.516,1.516,0,0,1-1.515-1.516v-.006h1.01v.006a.506.506,0,0,0,.5.506h6.079a.506.506,0,0,0,.5-.506v-.006h1.011v.006a1.516,1.516,0,0,1-1.516,1.516h-.521v1.362a.167.167,0,0,1-.168.167Zm4.973-2.422v-7.3h7.3v7.3Zm-20.6,0v-7.3h7.3v7.3Zm18.4-1.135a.4.4,0,0,1-.4-.4v-.217a.4.4,0,0,1,.4-.4h1.244a.4.4,0,0,1,.4.4v.217a.4.4,0,0,1-.4.4Zm-10.135,0a.4.4,0,0,1-.4-.4v-.217a.4.4,0,0,1,.4-.4h1.244a.4.4,0,0,1,.4.4v.217a.4.4,0,0,1-.4.4Zm7.594-.489a.4.4,0,0,1-.4-.4V1695.4a.4.4,0,0,1,.4-.4h.216a.4.4,0,0,1,.4.4v3.277a.4.4,0,0,1-.4.4Zm-2.234-.029a.169.169,0,0,1-.168-.169v-.85h-1.028v.85a.169.169,0,0,1-.169.169h-.673a.169.169,0,0,1-.168-.169v-2.894a1.007,1.007,0,0,1,1.007-1.008h1.035a1.007,1.007,0,0,1,1.007,1.008v2.894a.169.169,0,0,1-.169.169Zm-1.2-2.828v.565a.232.232,0,0,0,.231.232h.565a.232.232,0,0,0,.231-.232v-.565a.231.231,0,0,0-.231-.231h-.565A.231.231,0,0,0,430.426,1696.221Zm5.971,1.323a.4.4,0,0,1-.4-.4v-.216a.4.4,0,0,1,.4-.4h1.244a.4.4,0,0,1,.4.4v.216a.4.4,0,0,1-.4.4Zm-10.135,0a.4.4,0,0,1-.4-.4v-.216a.4.4,0,0,1,.4-.4h1.244a.4.4,0,0,1,.4.4v.216a.4.4,0,0,1-.4.4Zm10.135-2.022a.4.4,0,0,1-.4-.4v-.217a.4.4,0,0,1,.4-.4h1.244a.4.4,0,0,1,.4.4v.217a.4.4,0,0,1-.4.4Zm-10.135,0a.4.4,0,0,1-.4-.4v-.217a.4.4,0,0,1,.4-.4h1.244a.4.4,0,0,1,.4.4v.217a.4.4,0,0,1-.4.4Zm9.233-1.518V1694a.506.506,0,0,0-.5-.5h-6.079a.506.506,0,0,0-.5.5V1694H427.4V1694a1.516,1.516,0,0,1,1.515-1.516h.5v-1.353a.169.169,0,0,1,.168-.169h.673a.17.17,0,0,1,.169.169v1.353h1.01v-1.353a.17.17,0,0,1,.169-.169h.673a.17.17,0,0,1,.169.169v1.353h1.011v-1.353a.169.169,0,0,1,.168-.169h.674a.169.169,0,0,1,.168.169v1.353h.521a1.516,1.516,0,0,1,1.516,1.516V1694Zm3.1-3.6v-7.3h7.3v7.3Zm-10.293,0v-7.3h7.3v7.3Zm-10.307,0v-7.3h7.3v7.3Z"/></g></svg>