<svg xmlns="http://www.w3.org/2000/svg" xmlns:xlink="http://www.w3.org/1999/xlink" width="27.8" height="27.8" viewBox="0 0 27.8 27.8"><defs><style>.a{fill:#ff8f6b;}.b{clip-path:url(#a);}</style><clipPath id="a"><rect class="a" width="27.8" height="27.8" transform="translate(0 0)"/></clipPath></defs><g transform="translate(-983 -1683.2)"><g transform="translate(983 1683.2)"><g class="b"><path class="a" d="M27.8,13.568a1.2,1.2,0,0,1-.029.337l-.029.2c-.365,1.93-2.865,3.436-5.67,3.436A6.647,6.647,0,0,1,21.3,17.5a6.585,6.585,0,0,1-3.756-1.535c-.029-.029-.073-.059-.1-.087a4.835,4.835,0,0,0-3.317-1.39h-.438a4.837,4.837,0,0,0-3.318,1.39c-.029.029-.058.043-.087.073a6.546,6.546,0,0,1-3.77,1.55,6.659,6.659,0,0,1-.775.044c-2.806,0-5.3-1.506-5.67-3.436l-.029-.2A1.093,1.093,0,0,1,0,13.6a5.918,5.918,0,0,1,.044-.731,3.265,3.265,0,0,1,.087-.526.16.16,0,0,1,.015-.073q.044-.2.087-.395c.015-.015.015-.029.029-.059a7.3,7.3,0,0,1,.315-.853,7.694,7.694,0,0,1,7.152-4.5H20.068a7.692,7.692,0,0,1,7.18,4.554,6.547,6.547,0,0,1,.3.826,4.171,4.171,0,0,1,.1.409.644.644,0,0,1,.029.146,2.282,2.282,0,0,1,.073.439,6.106,6.106,0,0,1,.044.731m-.444-6.292H27.8V0H20.527V4.291a10.158,10.158,0,0,1,6.828,2.986M0,27.8H7.273V20.523H0ZM14.12,16.683h-.438a2.659,2.659,0,0,0-1.8.775c-.029.029-.073.059-.1.088h4.238a.663.663,0,0,1-.1-.088,2.66,2.66,0,0,0-1.8-.775M10.276,27.795h7.263V20.528H10.276Zm10.244,0H27.8V20.528H20.52ZM0,7.282H.456a10.1,10.1,0,0,1,6.81-3V0H0ZM17.543,0H10.27V4.27h7.273Z"/></g></g><path class="a" d="M983,1711v-7.277h7.273V1711Zm20.52-.005v-7.267h7.278v7.267Zm-10.244,0v-7.267h7.263v7.267Zm11.019-10.293a6.581,6.581,0,0,1-3.755-1.535c-.03-.029-.074-.059-.1-.087a4.835,4.835,0,0,0-3.316-1.39h-.438a4.839,4.839,0,0,0-3.318,1.39c-.029.029-.058.043-.087.073a7.363,7.363,0,0,1-4.545,1.594c-2.806,0-5.3-1.507-5.67-3.436l-.029-.2a1.08,1.08,0,0,1-.03-.307,5.858,5.858,0,0,1,.044-.732,3.222,3.222,0,0,1,.087-.526.155.155,0,0,1,.015-.074c.029-.131.058-.263.087-.394.014-.015.014-.03.029-.059a7.384,7.384,0,0,1,.316-.852,7.693,7.693,0,0,1,7.152-4.5h12.335a7.693,7.693,0,0,1,7.18,4.555,6.545,6.545,0,0,1,.3.826c.044.131.073.278.1.409a.658.658,0,0,1,.029.146,2.263,2.263,0,0,1,.073.439,6.027,6.027,0,0,1,.044.731,1.226,1.226,0,0,1-.029.337l-.03.2c-.365,1.93-2.865,3.436-5.67,3.436A6.592,6.592,0,0,1,1004.295,1700.7Zm-9.514.044c.03-.03.074-.058.1-.088a2.658,2.658,0,0,1,1.8-.775h.438a2.66,2.66,0,0,1,1.8.775.673.673,0,0,0,.1.088ZM983,1690.482V1683.2h7.263v4.284a10.1,10.1,0,0,0-6.809,3Zm27.352-.005a10.163,10.163,0,0,0-6.828-2.985V1683.2h7.274v7.276Zm-17.085-3.007v-4.27h7.274v4.27Z"/></g></svg>