<svg xmlns="http://www.w3.org/2000/svg" xmlns:xlink="http://www.w3.org/1999/xlink" width="28.2" height="28.2" viewBox="0 0 28.2 28.2"><defs><style>.a{fill:#ff8f6b;}.b{clip-path:url(#a);}</style><clipPath id="a"><rect class="a" width="28.2" height="28.2" transform="translate(0 0)"/></clipPath></defs><g transform="translate(-983 -1746.8)"><g transform="translate(983 1746.8)"><g class="b"><path class="a" d="M11.74,0h4.717V3.908H11.74Zm0,14.815a4.406,4.406,0,0,1,1.039-.4,3.992,3.992,0,0,0-1.039.385Zm3.665-.4a4.782,4.782,0,0,1,1.054.4V14.8a4.089,4.089,0,0,0-1.054-.385M26.483,5.872A9.866,9.866,0,0,1,28.2,7.435V5.872ZM20.36,3.908a10.728,10.728,0,0,1,1.966.183V0H17.609V3.908Zm7.81,8.846c-.015-.075-.015-.149-.03-.223-.015-.148-.044-.3-.074-.445-.03-.119-.045-.222-.075-.341a6.28,6.28,0,0,0-.4-1.157h0l0,0a6.632,6.632,0,0,0-1.155-1.775,7.778,7.778,0,0,0-2.953-2.076,8.627,8.627,0,0,0-2.567-.578c-.178,0-.357-.015-.549-.015H7.84c-.192,0-.371.015-.549.015a10.924,10.924,0,0,0-1.425.237,5.945,5.945,0,0,0-1.143.341A7.624,7.624,0,0,0,.6,10.588a6.181,6.181,0,0,0-.386,1.157,4.5,4.5,0,0,0-.148.786,5.064,5.064,0,0,0-.06.83,2.175,2.175,0,0,0,.015.312l.045.208a2.418,2.418,0,0,0,.237.7c.045.1.1.192.148.282a.919.919,0,0,0,.089.119,2.948,2.948,0,0,0,.253.341,5.031,5.031,0,0,0,1.023.889,3.922,3.922,0,0,0,.415.253,7.558,7.558,0,0,0,3.576.889,7.347,7.347,0,0,0,3.606-.889c.193-.1.371-.223.549-.341a3.983,3.983,0,0,0,.55-.445.15.15,0,0,0,.074-.06,4.7,4.7,0,0,1,1.158-.816,3.992,3.992,0,0,1,1.039-.385,2.369,2.369,0,0,1,.549-.1,3.409,3.409,0,0,1,.549-.045h.43a3.275,3.275,0,0,1,.549.045,2.23,2.23,0,0,1,.549.1,4.089,4.089,0,0,1,1.054.385,5.429,5.429,0,0,1,1.143.816c.03.03.06.03.074.06a3.733,3.733,0,0,0,.52.415,5.621,5.621,0,0,0,.579.371,7.43,7.43,0,0,0,3.606.889,7.526,7.526,0,0,0,3.591-.889,5.546,5.546,0,0,0,.579-.371,1.9,1.9,0,0,0,.342-.267,3.629,3.629,0,0,0,.861-.994.843.843,0,0,0,.134-.252,2.418,2.418,0,0,0,.237-.7l.045-.208a2.229,2.229,0,0,0,.03-.341c0-.192-.015-.385-.03-.578M24.415,4.714H28.2V0H23.479V4.377q.479.147.936.337M7.837,3.908h2.75V0H5.87V4.092a10.679,10.679,0,0,1,1.967-.184m3.9,18.42h4.717V17.614H11.74Zm0,5.872h4.717V23.486H11.74Zm5.87-9.851v3.98h4.717V19.573a9.607,9.607,0,0,1-4.717-1.224m5.87,9.851H28.2V23.486H23.479Zm0-8.7v2.828H28.2V17.615h-.007a9.013,9.013,0,0,1-4.71,1.886m-5.87,8.7h4.717V23.486H17.609ZM5.87,19.573v2.755h4.717V18.349A9.616,9.616,0,0,1,5.87,19.573M0,28.2H4.717V23.486H0ZM4.717,4.378V0H0V4.714H3.787q.454-.188.93-.336m-3,1.493H0V7.446A9.844,9.844,0,0,1,1.721,5.872M.014,17.615H0v4.713H4.717V19.5a8.983,8.983,0,0,1-4.7-1.886M5.87,28.2h4.717V23.486H5.87Z"/></g></g><path class="a" d="M1006.479,1775v-4.714h4.717V1775Zm-5.87,0v-4.714h4.717V1775Zm-5.87,0v-4.714h4.717V1775Zm-5.87,0v-4.714h4.717V1775Zm-5.87,0v-4.714h4.717V1775Zm23.479-5.872V1766.3a9.012,9.012,0,0,0,4.71-1.885h.007v4.713Zm-5.87,0v-3.98a9.607,9.607,0,0,0,4.717,1.225v2.755Zm-5.87,0v-4.714h4.717v4.714Zm-5.87,0v-2.755a9.619,9.619,0,0,0,4.717-1.224v3.979Zm-5.87,0v-4.713h.014a8.983,8.983,0,0,0,4.7,1.885v2.828Zm18.777-5.867a5.594,5.594,0,0,1-.579-.371,3.7,3.7,0,0,1-.519-.415c-.014-.03-.044-.03-.075-.06a5.419,5.419,0,0,0-1.142-.815v.015a4.808,4.808,0,0,0-1.054-.4,2.21,2.21,0,0,0-.549-.1,3.275,3.275,0,0,0-.549-.045h-.43a3.413,3.413,0,0,0-.549.045,2.35,2.35,0,0,0-.549.1,4.426,4.426,0,0,0-1.039.4v-.015a4.735,4.735,0,0,0-1.157.815.149.149,0,0,1-.074.06,3.946,3.946,0,0,1-.55.445c-.177.119-.355.238-.549.341a7.344,7.344,0,0,1-3.606.89,7.552,7.552,0,0,1-3.576-.89,3.825,3.825,0,0,1-.416-.252,5.038,5.038,0,0,1-1.023-.889,3.016,3.016,0,0,1-.253-.342,1.083,1.083,0,0,1-.089-.118c-.044-.09-.1-.178-.148-.283a2.409,2.409,0,0,1-.238-.7l-.045-.208a2.247,2.247,0,0,1-.014-.311,5.046,5.046,0,0,1,.059-.831,4.469,4.469,0,0,1,.148-.786,6.209,6.209,0,0,1,.385-1.156,7.624,7.624,0,0,1,4.126-3.857,5.945,5.945,0,0,1,1.143-.341,10.933,10.933,0,0,1,1.425-.238c.178,0,.356-.014.549-.014h12.525c.192,0,.37.014.549.014a8.645,8.645,0,0,1,2.567.579,7.774,7.774,0,0,1,2.953,2.076,6.639,6.639,0,0,1,1.156,1.775l0,.005h0a6.211,6.211,0,0,1,.4,1.156c.03.119.045.222.075.341a4.459,4.459,0,0,1,.074.445c.015.074.015.149.03.223.015.192.03.385.03.578a2.174,2.174,0,0,1-.03.341l-.044.208a2.411,2.411,0,0,1-.238.7.836.836,0,0,1-.133.252,3.606,3.606,0,0,1-.861.994,1.878,1.878,0,0,1-.341.267,5.5,5.5,0,0,1-.579.371,7.522,7.522,0,0,1-3.591.89A7.43,7.43,0,0,1,1001.777,1763.261ZM983,1752.672h1.722a9.852,9.852,0,0,0-1.722,1.574Zm26.482,0h1.714v1.564A9.88,9.88,0,0,0,1009.482,1752.672Zm-2.067-1.157c-.305-.126-.617-.239-.936-.337V1746.8h4.717v4.714Zm-24.415,0V1746.8h4.717v4.378q-.477.147-.931.336Zm20.36-.806h-2.75V1746.8h4.717v4.091A10.7,10.7,0,0,0,1003.36,1750.708Zm-14.49-3.908h4.717v3.908h-2.75a10.7,10.7,0,0,0-1.966.184Zm5.87,3.908V1746.8h4.717v3.908Z"/></g></svg>