<svg xmlns="http://www.w3.org/2000/svg" xmlns:xlink="http://www.w3.org/1999/xlink" width="28.001" height="28" viewBox="0 0 28.001 28"><defs><style>.a{fill:#ff8f6b;}.b{clip-path:url(#a);}</style><clipPath id="a"><rect class="a" width="28" height="28" transform="translate(0 0)"/></clipPath></defs><g transform="translate(-902 -1746)"><g transform="translate(902 1746)"><g class="b"><path class="a" d="M14.835,4.331V0h5.48V4.333l-.05,0Zm1.109,10.646h-.029a5.119,5.119,0,0,1,1.312.751,4.73,4.73,0,0,0-1.283-.751M27.665,7.488c.022.024.045.047.066.07v-.07ZM12.212,14.977a4.73,4.73,0,0,0-1.283.751,5.119,5.119,0,0,1,1.312-.751Zm12.9-9.441h2.62V0h-5.48V4.521a10.192,10.192,0,0,1,2.86,1.015m2.626,6.408c-.073-.235-.146-.471-.233-.707a7.533,7.533,0,0,0-1.137-1.885A8.031,8.031,0,0,0,25.3,8.306a7.937,7.937,0,0,0-5.044-1.767H7.9a8.1,8.1,0,0,0-3.756.942h-.02c-.035.018-.065.042-.1.06a7.636,7.636,0,0,0-2,1.558l-.008.009A6.906,6.906,0,0,0,.246,12.921c0,.033-.014.064-.017.1H.236a6.6,6.6,0,0,0-.08.736,2.188,2.188,0,0,0,.015.309l.043.221a2.4,2.4,0,0,0,.234.692,4.056,4.056,0,0,0,1.326,1.517,6.98,6.98,0,0,0,3.672,1.218l.031,0h0c.137.007.269.031.408.031a6.6,6.6,0,0,0,1.531-.162,7.3,7.3,0,0,0,1.735-.574c.131-.058.262-.132.379-.192s.218-.132.306-.191a4.565,4.565,0,0,0,.7-.56c.131-.118.262-.236.393-.339a4.73,4.73,0,0,1,1.283-.751h.029a4.128,4.128,0,0,1,1.618-.323H14.3a4.218,4.218,0,0,1,1.647.323,4.73,4.73,0,0,1,1.283.751c.131.1.262.221.393.339a5.091,5.091,0,0,0,.613.5c.19.118.393.236.6.354a7.235,7.235,0,0,0,3.425.825h.015a5.859,5.859,0,0,0,.889-.059.539.539,0,0,0,.146-.015c.233-.029.481-.073.714-.118.015-.015.044-.015.087-.029.219-.059.437-.118.642-.192a5.74,5.74,0,0,0,2.391-1.517l.218-.265a3.36,3.36,0,0,0,.35-.574,2.425,2.425,0,0,0,.233-.692l.044-.221A2.4,2.4,0,0,0,28,13.725a6.052,6.052,0,0,0-.263-1.782M5.48,4.624V0H0V5.536H3.052A10.2,10.2,0,0,1,5.48,4.624M14.835,28h5.48V22.465h-5.48ZM16.1,17.66a2.786,2.786,0,0,0-1.268-.721v3.573h5.48v-.761A8.332,8.332,0,0,1,16.1,17.66m6.164,2.293h-.014v.56h5.48V18.2a9.154,9.154,0,0,1-5.466,1.751M7.894,4.331h5V0H7.417V4.354c.159-.007.315-.023.476-.023m4.16,13.33a8.452,8.452,0,0,1-4.636,2.16v.691H12.9V17.083a2.966,2.966,0,0,0-.843.579M22.252,28h5.48V22.465h-5.48ZM7.417,28H12.9V22.465H7.417ZM0,28H5.48V22.465H0ZM.5,7.488H0v.576q.239-.3.5-.576M0,17.856v2.656H5.48v-.588A8.9,8.9,0,0,1,0,17.856"/></g></g><path class="a" d="M924.251,1774v-5.535h5.48V1774Zm-7.417,0v-5.535h5.48V1774Zm-7.418,0v-5.535h5.48V1774ZM902,1774v-5.535h5.48V1774Zm22.252-7.488v-.561l.014,0a9.155,9.155,0,0,0,5.466-1.751v2.31Zm-7.417,0v-3.573a2.789,2.789,0,0,1,1.267.721,8.326,8.326,0,0,0,4.213,2.091v.761Zm-7.418,0v-.691a8.45,8.45,0,0,0,4.637-2.159,2.955,2.955,0,0,1,.843-.579v3.429Zm-7.417,0v-2.656a8.9,8.9,0,0,0,5.48,2.067v.589Zm22.256-2.767a7.232,7.232,0,0,1-3.425-.824c-.2-.117-.409-.236-.6-.354a5,5,0,0,1-.613-.5c-.131-.117-.262-.236-.393-.339a5.1,5.1,0,0,0-1.312-.751h.029a4.219,4.219,0,0,0-1.647-.323h-.437a4.129,4.129,0,0,0-1.617.323,5.068,5.068,0,0,0-1.312.751c-.131.1-.263.221-.394.339a4.58,4.58,0,0,1-.7.56c-.088.059-.19.118-.306.191s-.248.133-.379.192a7.277,7.277,0,0,1-1.735.574,6.584,6.584,0,0,1-1.531.162c-.14,0-.271-.023-.408-.031v0c-.011,0-.022,0-.031,0a6.987,6.987,0,0,1-3.672-1.219,4.056,4.056,0,0,1-1.326-1.517,2.392,2.392,0,0,1-.234-.692l-.043-.22a2.228,2.228,0,0,1-.014-.31,6.65,6.65,0,0,1,.079-.736h-.007c0-.033.014-.064.018-.1a6.9,6.9,0,0,1,1.772-3.812l.008-.01a7.625,7.625,0,0,1,2-1.558c.034-.018.064-.041.1-.059h.019a8.1,8.1,0,0,1,3.757-.942h12.362a7.937,7.937,0,0,1,5.044,1.767,8.067,8.067,0,0,1,1.064,1.046,7.529,7.529,0,0,1,1.137,1.885c.087.236.161.472.233.707a6.04,6.04,0,0,1,.264,1.781,2.312,2.312,0,0,1-.015.339l-.044.22a2.389,2.389,0,0,1-.233.692,3.308,3.308,0,0,1-.35.574c-.072.089-.146.177-.218.266a5.734,5.734,0,0,1-2.391,1.516c-.2.074-.422.133-.642.192-.043.014-.072.014-.087.029-.233.045-.481.089-.714.118a.528.528,0,0,1-.147.015,5.9,5.9,0,0,1-.889.058ZM902,1753.488h.5q-.263.278-.5.576Zm27.665,0h.067v.069Zm-2.553-1.952a10.208,10.208,0,0,0-2.86-1.015V1746h5.48v5.536Zm-25.112,0V1746h5.48v4.624a10.181,10.181,0,0,0-2.428.912Zm7.417-5.536h5.48v4.332h-5c-.161,0-.318.015-.477.022Zm12.848,4.332h-5.431V1746h5.48v4.333Z"/></g></svg>