<svg xmlns="http://www.w3.org/2000/svg" xmlns:xlink="http://www.w3.org/1999/xlink" width="18" height="18" viewBox="0 0 18 18"><defs><style>.a{fill:#fff;}.b{clip-path:url(#a);}</style><clipPath id="a"><rect class="a" width="18" height="18"/></clipPath></defs><g transform="translate(0)"><g class="b"><path class="a" d="M6.964,9.643H1.393A1.393,1.393,0,0,0,0,11.036v5.571A1.393,1.393,0,0,0,1.393,18H6.964a1.393,1.393,0,0,0,1.393-1.393V11.036A1.393,1.393,0,0,0,6.964,9.643M6.79,15.629a.8.8,0,0,1-.8.8H2.37a.8.8,0,0,1-.8-.8V12.013a.8.8,0,0,1,.8-.8H5.986a.8.8,0,0,1,.8.8Zm9.817-5.987H11.036a1.393,1.393,0,0,0-1.393,1.393v5.571A1.393,1.393,0,0,0,11.036,18h5.571A1.393,1.393,0,0,0,18,16.607V11.036a1.393,1.393,0,0,0-1.393-1.393m-.174,5.987a.8.8,0,0,1-.8.8H12.013a.8.8,0,0,1-.8-.8V12.013a.8.8,0,0,1,.8-.8h3.616a.8.8,0,0,1,.8.8ZM6.964,0H1.393A1.393,1.393,0,0,0,0,1.393V6.964A1.393,1.393,0,0,0,1.393,8.357H6.964A1.393,1.393,0,0,0,8.357,6.964V1.393A1.393,1.393,0,0,0,6.964,0M6.79,5.987a.8.8,0,0,1-.8.8H2.37a.8.8,0,0,1-.8-.8V2.37a.8.8,0,0,1,.8-.8H5.986a.8.8,0,0,1,.8.8Zm5.876,1.892a1.634,1.634,0,0,0,2.31,0l2.545-2.545a1.634,1.634,0,0,0,0-2.31L14.976.478a1.634,1.634,0,0,0-2.31,0L10.121,3.023a1.634,1.634,0,0,0,0,2.31Z"/></g></g><path class="a" d="M11.035,18a1.393,1.393,0,0,1-1.393-1.393V11.035a1.393,1.393,0,0,1,1.393-1.393h5.572A1.393,1.393,0,0,1,18,11.035v5.572A1.393,1.393,0,0,1,16.607,18Zm.174-5.987v3.616a.8.8,0,0,0,.8.8h3.616a.8.8,0,0,0,.8-.8V12.013a.8.8,0,0,0-.8-.8H12.013A.8.8,0,0,0,11.21,12.013ZM1.393,18A1.393,1.393,0,0,1,0,16.607V11.035A1.393,1.393,0,0,1,1.393,9.643H6.964a1.393,1.393,0,0,1,1.393,1.393v5.572A1.393,1.393,0,0,1,6.964,18Zm.174-5.987v3.616a.8.8,0,0,0,.8.8H5.986a.8.8,0,0,0,.8-.8V12.013a.8.8,0,0,0-.8-.8H2.37A.8.8,0,0,0,1.567,12.013ZM1.393,8.357A1.393,1.393,0,0,1,0,6.964V1.393A1.393,1.393,0,0,1,1.393,0H6.964A1.393,1.393,0,0,1,8.357,1.393V6.964A1.393,1.393,0,0,1,6.964,8.357Zm.174-5.987V5.987a.8.8,0,0,0,.8.8H5.986a.8.8,0,0,0,.8-.8V2.371a.8.8,0,0,0-.8-.8H2.37A.8.8,0,0,0,1.567,2.371Zm11.1,5.508L10.121,5.333a1.634,1.634,0,0,1,0-2.31L12.666.479a1.633,1.633,0,0,1,2.31,0l2.544,2.545a1.634,1.634,0,0,1,0,2.31L14.976,7.878a1.634,1.634,0,0,1-2.31,0Z" transform="translate(0 0)"/></svg>