<svg xmlns="http://www.w3.org/2000/svg" width="21.305" height="18.4" viewBox="0 0 21.305 18.4"><defs><style>.a{fill:#fff;}</style></defs><path class="a" d="M21.192,88.4H18.324a.819.819,0,0,1-.819-.818V85.13a.819.819,0,0,1,.819-.818h.819v-3.68a.819.819,0,0,0-.819-.818H11.768v4.5h.819a.819.819,0,0,1,.819.818v2.453a.819.819,0,0,1-.819.818H9.72a.819.819,0,0,1-.819-.818V85.13a.819.819,0,0,1,.819-.818h.819v-4.5H4.393a.819.819,0,0,0-.819.818v3.68h.819a.819.819,0,0,1,.819.818v2.453a.819.819,0,0,1-.819.818H1.525a.819.819,0,0,1-.819-.818V85.13a.819.819,0,0,1,.819-.818h.819V80.223a1.637,1.637,0,0,1,1.639-1.636h6.555v-4.5H9.72a.819.819,0,0,1-.819-.818V70.819A.819.819,0,0,1,9.72,70h2.868a.819.819,0,0,1,.819.818v2.453a.819.819,0,0,1-.819.818h-.819v4.5h6.965a1.637,1.637,0,0,1,1.639,1.636v4.089h.819a.819.819,0,0,1,.819.818v2.453A.819.819,0,0,1,21.192,88.4Z" transform="translate(-0.706 -70.001)"/></svg>