<svg xmlns="http://www.w3.org/2000/svg" width="20" height="20" viewBox="0 0 20 20"><defs><style>.a{fill:#fff;}</style></defs><path class="a" d="M184.813,172.145v-.738a.732.732,0,1,1,1.464,0v.738h1.707a2.7,2.7,0,0,1,2.683,2.709V178.8a.732.732,0,1,1-1.463,0v-1.725H172.13v10.6a1.226,1.226,0,0,0,1.22,1.232h4.878a.74.74,0,0,1,0,1.479H173.35a2.7,2.7,0,0,1-2.683-2.712V174.855a2.7,2.7,0,0,1,2.683-2.71h1.707v-.74a.732.732,0,1,1,1.464,0v.738h8.292Zm0,1.479h-8.292v.739a.732.732,0,1,1-1.464,0v-.74H173.35a1.226,1.226,0,0,0-1.22,1.233v.739H189.2v-.74a1.225,1.225,0,0,0-1.22-1.231h-1.707v.739a.732.732,0,1,1-1.464,0v-.74Zm2.9,15.985q-.512.159-1.021.324l-.5.157-.451.141-.293.092q-.356.11-.709.232a1.928,1.928,0,0,1-.642.112,1.892,1.892,0,0,1-1.34-.56,35.594,35.594,0,0,1-3.43-3.641,3.374,3.374,0,0,0-.282-.295l-.04-.038-.185-.184a1.877,1.877,0,0,1,.566-3.105,2.19,2.19,0,0,1,.343-.129l-.108-.367-.17-.575-.338-1.149q-.039-.126-.07-.254a2.85,2.85,0,0,1-.059-.318,1.927,1.927,0,0,1,1.287-2.12,1.658,1.658,0,0,1,.633-.12,1.817,1.817,0,0,1,1.754,1.318c.07.2.121.351.227.683l.011.035.025.076c.03-.006.059-.013.09-.018a2.089,2.089,0,0,1,.445-.048,1.845,1.845,0,0,1,.844.194l.014-.006a2.153,2.153,0,0,1,.841-.177,1.822,1.822,0,0,1,1.025.31,2.43,2.43,0,0,1,.325-.074c.093-.01.093-.01.163-.014s.07,0,.1,0a1.96,1.96,0,0,1,1.83,1.294,9.692,9.692,0,0,1,.409,6.955A1.936,1.936,0,0,1,187.715,189.609Zm-.093-1.74a8.265,8.265,0,0,0-.375-5.924.526.526,0,0,0-.477-.377.591.591,0,0,0-.084,0c-.284.046-.224.3-.224.512v.032c0,.242-.088.423-.344.452a.3.3,0,0,1-.052,0c-.214,0-.323-.15-.358-.373a1.649,1.649,0,0,0-.207-.63.379.379,0,0,0-.347-.22.721.721,0,0,0-.28.063c-.245.1-.217.292-.158.5a2.029,2.029,0,0,1,.074.288.372.372,0,0,1-.238.43.445.445,0,0,1-.144.029.349.349,0,0,1-.312-.2,2.1,2.1,0,0,1-.256-.719c-.049-.28-.168-.4-.385-.4a.658.658,0,0,0-.137.014c-.379.071-.515.249-.442.594.046.217.133.427.19.64a.343.343,0,0,1-.19.442.353.353,0,0,1-.16.042.369.369,0,0,1-.3-.174.9.9,0,0,1-.13-.267q-.257-.842-.564-1.668c-.16-.438-.284-.886-.441-1.324-.067-.185-.183-.345-.379-.345a.237.237,0,0,0-.122.028.464.464,0,0,0-.344.563,2.221,2.221,0,0,0,.077.32c.34,1.149.677,2.3,1.017,3.447a5.108,5.108,0,0,1,.143.513.379.379,0,0,1-.192.423.3.3,0,0,1-.158.046.45.45,0,0,1-.267-.11c-.09-.071-.16-.16-.248-.224a.782.782,0,0,0-.491-.185.722.722,0,0,0-.312.07.41.41,0,0,0-.137.737,8.122,8.122,0,0,1,.6.62,34.6,34.6,0,0,0,3.287,3.486.489.489,0,0,0,.344.164.57.57,0,0,0,.179-.036c.49-.17.985-.317,1.475-.473.512-.157,1.02-.324,1.535-.484a.464.464,0,0,0,.337-.327Z" transform="translate(-170.667 -170.667)"/></svg>