<svg xmlns="http://www.w3.org/2000/svg" width="18" height="19.415" viewBox="0 0 18 19.415"><defs><style>.a{fill:#fff;}</style></defs><path class="a" d="M2.859,18.825A7.885,7.885,0,0,1,.91,18.153c-.6-.33-.91-.723-.91-1.169a1.171,1.171,0,0,1,.529-.922,4.167,4.167,0,0,1,1.117-.57,16.468,16.468,0,0,1,3.59-.74.459.459,0,1,1,.1.912,15.39,15.39,0,0,0-3.372.689c-.86.31-1.037.577-1.037.631,0,.091.382.542,2.141.949A27.609,27.609,0,0,0,9,18.5a27.61,27.61,0,0,0,5.928-.565c1.759-.407,2.14-.857,2.14-.949,0,0-.069-.3-1.146-.669a16.786,16.786,0,0,0-3.647-.692.459.459,0,1,1,.094-.913,17.83,17.83,0,0,1,3.861.738,4.475,4.475,0,0,1,1.2.584,1.2,1.2,0,0,1,.569.952c0,.445-.306.838-.91,1.169a7.873,7.873,0,0,1-1.949.672A28.588,28.588,0,0,1,9,19.415,28.58,28.58,0,0,1,2.859,18.825Zm4.8-1.7L3.478,10.006A6.2,6.2,0,0,1,3,9.2l-.16-.273h.033a6.329,6.329,0,0,1-.521-2.519A6.47,6.47,0,0,1,8.883,0,6.469,6.469,0,0,1,15.41,6.412a6.3,6.3,0,0,1-.522,2.519h.034l-.16.273a6.485,6.485,0,0,1-.471.8L10.1,17.128a1.423,1.423,0,0,1-2.442,0ZM5.194,6.8A3.689,3.689,0,1,0,8.883,3.173,3.657,3.657,0,0,0,5.194,6.8Z"/></svg>