<svg xmlns="http://www.w3.org/2000/svg" width="18" height="15.643" viewBox="0 0 18 15.643"><defs><style>.a{fill:#fff;}</style></defs><path class="a" d="M.718,15.643A.716.716,0,0,1,0,14.93V12.071a.717.717,0,0,1,.718-.714H17.282a.717.717,0,0,1,.718.714V14.93a.716.716,0,0,1-.718.713Zm10.239-2.32v.353a.716.716,0,0,0,.718.715h4.588a.715.715,0,0,0,.716-.715v-.353a.715.715,0,0,0-.716-.714H11.675A.715.715,0,0,0,10.957,13.323ZM.718,9.966A.717.717,0,0,1,0,9.25V6.393a.716.716,0,0,1,.718-.714H17.282A.716.716,0,0,1,18,6.393V9.25a.717.717,0,0,1-.718.715ZM7.91,7.646V8a.716.716,0,0,0,.718.714H16A.716.716,0,0,0,16.713,8V7.646A.716.716,0,0,0,16,6.931H8.627A.716.716,0,0,0,7.91,7.646ZM.718,4.286A.716.716,0,0,1,0,3.573V.714A.717.717,0,0,1,.718,0H17.282A.717.717,0,0,1,18,.714V3.573a.716.716,0,0,1-.718.714Zm11.859-2.32V2.32a.716.716,0,0,0,.718.713H15.8a.716.716,0,0,0,.719-.713V1.967a.717.717,0,0,0-.719-.714H13.294A.718.718,0,0,0,12.577,1.967Z"/></svg>