<svg xmlns="http://www.w3.org/2000/svg" width="18" height="19.087" viewBox="0 0 18 19.087"><defs><style>.a{fill:#fff;}</style></defs><path class="a" d="M2.128,18.988C1.091,18.737.012,17.694,0,15.54v-.072a11.336,11.336,0,0,1,.944-4.091c.1-.237.189-.426.285-.615v-.048A22.628,22.628,0,0,1,7.521,3.434,14.71,14.71,0,0,0,1.228,8.681,8.051,8.051,0,0,1,2.6,4.947,7.572,7.572,0,0,1,9.365,1.732a9.829,9.829,0,0,1,1.229.1A9.752,9.752,0,0,1,15.438,0h.023a3.958,3.958,0,0,1,.479.03c2.365.33,2.222,2.883,1.844,4.207a7.068,7.068,0,0,1-1.136,2.317s1.277-3.263.474-4.681C16.507.833,15.56.6,14.141.974a7.053,7.053,0,0,0-2.128,1.135A7.84,7.84,0,0,1,15.749,4.9a9.4,9.4,0,0,1,1.373,5.342H6.1s.141,2.979,2.7,2.979c2.791,0,3.028-1.654,3.028-1.654h5.2a6.824,6.824,0,0,1-3.5,4.776,10.525,10.525,0,0,1-6.386.614,6.153,6.153,0,0,1-4.22,2.131A3.074,3.074,0,0,1,2.128,18.988Zm-.426-1.7c.71,1.04,2.506,1.277,4.683-.521a7.4,7.4,0,0,1-3.076-1.891A6.85,6.85,0,0,1,1.7,12.371C.991,14.687,1.087,16.342,1.7,17.288Zm7-12.057A2.494,2.494,0,0,0,6.289,7.548l5.772.1A2.663,2.663,0,0,0,9.2,5.206Q8.964,5.206,8.7,5.231Z"/></svg>