<svg xmlns="http://www.w3.org/2000/svg" width="18" height="16.114" viewBox="0 0 18 16.114"><defs><style>.a{fill:#fff;}</style></defs><path class="a" d="M16.49-1.08H14.754V-1.3a.873.873,0,0,0-.872-.874H4.767A.873.873,0,0,0,3.9-1.3v.22H2.244A1.882,1.882,0,0,0,.367.8V2.979A3.972,3.972,0,0,0,4.228,6.95,4.151,4.151,0,0,0,8.107,9.584h.429a0,0,0,0,1,0,0v2.607a0,0,0,0,1,0,0H5.913a.87.87,0,0,0-.867.818.882.882,0,0,0,.885.924h6.931a.87.87,0,0,0,.867-.818.882.882,0,0,0-.885-.924H10.279a0,0,0,0,1,0,0V9.587a0,0,0,0,1,0,0,4.548,4.548,0,0,0,4.1-2.633h.026a3.972,3.972,0,0,0,3.962-3.972V.8A1.881,1.881,0,0,0,16.49-1.08ZM1.428,2.979V.8a.818.818,0,0,1,.816-.818H3.9V5.226a4.709,4.709,0,0,0,.043.635A2.911,2.911,0,0,1,1.428,2.979ZM12.443,1.736,11.03,3.212v0l.257,2.01a0,0,0,0,1,0,0l-1.873-.86h0l-1.873.86a0,0,0,0,1,0,0l.257-2.01v0L6.371,1.736a0,0,0,0,1,0,0L8.4,1.349h0l1-1.78,1,1.78h0l2.031.382a0,0,0,0,1,0,0Zm4.863,1.243a2.91,2.91,0,0,1-2.6,2.893,4.133,4.133,0,0,0,.05-.643V-.017H16.49A.818.818,0,0,1,17.306.8Zm0,0" transform="translate(-0.367 2.175)"/></svg>