<svg xmlns="http://www.w3.org/2000/svg" width="18" height="20.604" viewBox="0 0 18 20.604"><defs><style>.a{fill:#fff;}</style></defs><path class="a" d="M13.374,20.6H9.005q-3.856,0-7.714,0A1.2,1.2,0,0,1,.016,19.542a5.642,5.642,0,0,1,.029-1.1,8.863,8.863,0,0,1,1.13-3.562,8.67,8.67,0,0,1,2.969-3.107,10.5,10.5,0,0,1,1.521-.787,8.731,8.731,0,0,1,3.792-.633A8.62,8.62,0,0,1,13.2,11.38a8.824,8.824,0,0,1,4.7,6.525,9.749,9.749,0,0,1,.1,1.453A1.18,1.18,0,0,1,16.753,20.6l-1.229,0ZM9.01,9.347a4.674,4.674,0,1,1,4.7-4.659,4.682,4.682,0,0,1-4.7,4.659Z"/></svg>