<svg xmlns="http://www.w3.org/2000/svg" xmlns:xlink="http://www.w3.org/1999/xlink" width="20.217" height="18" viewBox="0 0 20.217 18"><defs><style>.a{fill:#fff;}.b{clip-path:url(#a);}</style><clipPath id="a"><rect class="a" width="20.217" height="18"/></clipPath></defs><g transform="translate(0 0)"><g class="b"><path class="a" d="M10.11,10.033a.667.667,0,0,1-.279-.061L.388,5.622a.667.667,0,0,1,0-1.211L9.831.061a.667.667,0,0,1,.555,0l9.443,4.35a.667.667,0,0,1,0,1.211l-9.443,4.35a.665.665,0,0,1-.277.061M2.26,5.016l7.85,3.616,7.85-3.616L10.11,1.4ZM19.219,12.4l-9.11,4.2L1,12.4V13.87l8.831,4.069a.667.667,0,0,0,.555,0l8.833-4.069Zm0-3.988-9.11,4.2L1,8.414V9.889l8.831,4.068a.666.666,0,0,0,.555,0l8.833-4.068Z"/></g></g><path class="a" d="M9.831,17.939,1,13.87V12.4l9.11,4.2,9.11-4.2V13.87l-8.833,4.069a.668.668,0,0,1-.555,0Zm0-3.983L1,9.889V8.414l9.11,4.2,9.11-4.2V9.889l-8.833,4.068a.668.668,0,0,1-.555,0Zm0-3.984L.388,5.622a.667.667,0,0,1,0-1.211L9.831.06a.669.669,0,0,1,.555,0l9.443,4.35a.667.667,0,0,1,0,1.211l-9.443,4.35a.663.663,0,0,1-.555,0ZM2.26,5.016l7.85,3.616,7.85-3.616L10.11,1.4Z"/></svg>