<svg xmlns="http://www.w3.org/2000/svg" width="18.5" height="18.5" viewBox="0 0 18.5 18.5"><defs><style>.a{fill:#fff;stroke:#fff;stroke-width:0.5px;}</style></defs><g transform="translate(0.25 0.25)"><path class="a" d="M258.25,128H259v3h-.75ZM265,138.5h3v.75h-3Zm-5.25-9h4.5v.75h-4.5ZM265,128h.75v3H265Zm-4.5,7.5h3v.75h-3Zm4.5,0h3v.75h-3Zm-4.5,3h3v.75h-3Zm-4.5,0h3v.75h-3Z" transform="translate(-253 -128)"/><path class="a" d="M145.25,192H141.5v.75h3.75v1.5h-16.5v-1.5h3.75V192h-3.75a.752.752,0,0,0-.75.75v15a.752.752,0,0,0,.75.75h16.5a.752.752,0,0,0,.75-.75v-15A.752.752,0,0,0,145.25,192Zm0,15.75h-16.5V195h16.5Z" transform="translate(-128 -190.5)"/><path class="a" d="M256,454h3v.75h-3Zm0-6h3v.75h-3Zm4.5,6h3v.75h-3Z" transform="translate(-253 -440.5)"/></g></svg>