<svg xmlns="http://www.w3.org/2000/svg" width="22.972" height="15.32" viewBox="0 0 22.972 15.32"><defs><style>.a{fill:#fff;}</style></defs><path class="a" d="M11.56,6.371a1.275,1.275,0,0,0-1.811,0L3.371,12.749a1.275,1.275,0,0,0,0,1.811l6.377,6.377a1.281,1.281,0,1,0,1.811-1.811L6.075,13.654,11.56,8.183a1.275,1.275,0,0,0,0-1.811Zm14.03,6.377L19.212,6.371A1.281,1.281,0,1,0,17.4,8.183l5.484,5.472L17.4,19.126a1.281,1.281,0,1,0,1.811,1.811l6.377-6.377a1.275,1.275,0,0,0,0-1.811Z" transform="translate(-2.994 -5.994)"/></svg>