<svg xmlns="http://www.w3.org/2000/svg" xmlns:xlink="http://www.w3.org/1999/xlink" width="18" height="13.286" viewBox="0 0 18 13.286"><defs><style>.a{fill:#fff;}.b{clip-path:url(#a);}</style><clipPath id="a"><rect class="a" width="18" height="13.286"/></clipPath></defs><g class="b"><path class="a" d="M1.862,0A1.837,1.837,0,0,0,0,1.812,1.837,1.837,0,0,0,1.862,3.623,1.837,1.837,0,0,0,3.724,1.812,1.838,1.838,0,0,0,1.862,0m0,4.831a1.812,1.812,0,1,0,0,3.623,1.812,1.812,0,1,0,0-3.623m0,4.831a1.812,1.812,0,1,0,0,3.623,1.812,1.812,0,1,0,0-3.623M6.827,3.019h9.931A1.225,1.225,0,0,0,18,1.812,1.226,1.226,0,0,0,16.758.6H6.827A1.226,1.226,0,0,0,5.586,1.812,1.225,1.225,0,0,0,6.827,3.019m9.931,2.416H6.827a1.208,1.208,0,1,0,0,2.416h9.931a1.208,1.208,0,1,0,0-2.416m0,4.831H6.827a1.208,1.208,0,1,0,0,2.415h9.931a1.208,1.208,0,1,0,0-2.415"/></g><path class="a" d="M0,11.474A1.837,1.837,0,0,1,1.861,9.662a1.812,1.812,0,1,1,0,3.623A1.838,1.838,0,0,1,0,11.474Zm6.827,1.207a1.208,1.208,0,1,1,0-2.415h9.931a1.208,1.208,0,1,1,0,2.415ZM0,6.643A1.837,1.837,0,0,1,1.861,4.831a1.812,1.812,0,1,1,0,3.622A1.837,1.837,0,0,1,0,6.643ZM6.827,7.851a1.208,1.208,0,1,1,0-2.416h9.931a1.208,1.208,0,1,1,0,2.416ZM0,1.812A1.837,1.837,0,0,1,1.861,0,1.837,1.837,0,0,1,3.724,1.812,1.838,1.838,0,0,1,1.861,3.623,1.837,1.837,0,0,1,0,1.812ZM6.827,3.019A1.225,1.225,0,0,1,5.586,1.811,1.226,1.226,0,0,1,6.827.6h9.931A1.226,1.226,0,0,1,18,1.811a1.225,1.225,0,0,1-1.242,1.207Z" transform="translate(0 0)"/></svg>