<svg xmlns="http://www.w3.org/2000/svg" width="18" height="17.998" viewBox="0 0 18 17.998"><defs><style>.a{fill:#fff;}</style></defs><path class="a" d="M2359.27,285.453l-1.117-.451.133-.317,1.116.45a7.811,7.811,0,0,0,.505-2.36h-1.223v-.716h1.223a8.146,8.146,0,0,0-.532-2.44l-1.116.45-.159-.318,1.142-.477a7.727,7.727,0,0,0-3.958-3.873l-.451,1.115-.32-.133.452-1.114a7.844,7.844,0,0,0-2.365-.5v1.22h-.718v-1.22a8.43,8.43,0,0,0-2.445.531l.479,1.112-.345.161-.454-1.14a8.163,8.163,0,0,0-2.045,1.326l.875.875-.5.477-.85-.849a7.438,7.438,0,0,0-1.382,2.121l1.144.452-.134.318-1.143-.451a7.044,7.044,0,0,0-.478,2.36h1.2v.716h-1.2a7.5,7.5,0,0,0,.5,2.439l1.143-.477.133.345-1.144.451a7.615,7.615,0,0,0,1.356,2.042l.85-.876.5.5-.875.849a7.636,7.636,0,0,0,10.338,0l-.852-.849.478-.5.852.876A7.543,7.543,0,0,0,2359.27,285.453Zm-6.1-2.971,4.253,3.616-4.679-3.058a1.337,1.337,0,0,1-.665.265,1.382,1.382,0,1,1,1.2-1.569A1.416,1.416,0,0,1,2353.173,282.481Zm1.2,5.311a.18.18,0,0,1-.184.184h-3.627a.189.189,0,0,1-.213-.184v-.814a.19.19,0,0,1,.213-.185h3.627a.181.181,0,0,1,.184.185Zm-.188-1.453h-3.646a.622.622,0,0,0-.613.615v.827a.6.6,0,0,0,.613.587h3.646a.615.615,0,0,0,.613-.587v-.827A.64.64,0,0,0,2354.181,286.339Zm-1.6.852h-.408a.2.2,0,0,0-.219.195.2.2,0,0,0,.219.223h.408a.2.2,0,0,0,.191-.223A.188.188,0,0,0,2352.576,287.191Zm-1.029,0h-.434a.188.188,0,0,0-.193.195.2.2,0,0,0,.193.223h.434a.2.2,0,0,0,.191-.223A.189.189,0,0,0,2351.548,287.191Zm2.037,0h-.4a.193.193,0,0,0-.212.195.2.2,0,0,0,.212.223h.4a.214.214,0,0,0,.211-.223A.208.208,0,0,0,2353.584,287.191Zm7.621-4.73a9,9,0,1,1-8.986-9,9.008,9.008,0,0,1,8.986,9Z" transform="translate(-2343.206 -273.462)"/></svg>