<svg xmlns="http://www.w3.org/2000/svg" width="18.999" height="18" viewBox="0 0 18.999 18"><defs><style>.a{fill:#fff;}</style></defs><path class="a" d="M302.909,137.381a1.655,1.655,0,0,1-1.749,1.558,1.553,1.553,0,0,1-.192,0,1.656,1.656,0,0,1-1.561-1.75,1.543,1.543,0,0,1,0-.191,1.656,1.656,0,0,1,1.75-1.558,1.537,1.537,0,0,1,.191,0,1.655,1.655,0,0,1,1.558,1.749A1.553,1.553,0,0,1,302.909,137.381Zm7.442-1.941a1.553,1.553,0,0,0-.192,0,1.656,1.656,0,0,0-1.75,1.558,1.531,1.531,0,0,0,0,.191,1.656,1.656,0,0,0,1.558,1.75,1.553,1.553,0,0,0,.192,0,1.657,1.657,0,0,0,1.75-1.558v-.192A1.656,1.656,0,0,0,310.351,135.44Zm-7.442-6.75a1.656,1.656,0,0,0-1.558-1.75,1.537,1.537,0,0,0-.191,0,1.657,1.657,0,0,0-1.753,1.558,1.559,1.559,0,0,0,0,.192,1.657,1.657,0,0,0,1.558,1.75h.192a1.656,1.656,0,0,0,1.749-1.558A1.553,1.553,0,0,0,302.909,128.69Zm12.25-2.75v16a1,1,0,0,1-1,1h-17a1,1,0,0,1-1-1v-16a1,1,0,0,1,1-1h17a1,1,0,0,1,1,1Zm-6.75,2.75a1.657,1.657,0,0,0,1.558,1.75h.192a1.657,1.657,0,0,0,1.75-1.558v-.192a1.657,1.657,0,0,0-1.558-1.75,1.553,1.553,0,0,0-.192,0,1.657,1.657,0,0,0-1.75,1.558,1.541,1.541,0,0,0,0,.192Zm-1.25,4.746h6a2.7,2.7,0,0,0-.059-.576c-.255-1.2-1.334-1.924-2.94-1.924s-2.685.723-2.94,1.924a2.705,2.705,0,0,0-.059.58Zm-2,1h-8v7.5h1c0-1.541,1.15-2.5,3-2.5s3,.958,3,2.5h1Zm0-8.5h-8v7.5h1c0-1.542,1.15-2.5,3-2.5s3,.958,3,2.5h1Zm9,8.5h-8v7.5h1c0-1.541,1.15-2.5,3-2.5s3,.958,3,2.5h1Z" transform="translate(-296.16 -124.94)"/></svg>