<svg xmlns="http://www.w3.org/2000/svg" width="27.8" height="27.8" viewBox="0 0 27.8 27.8"><defs><style>.a{fill:#ff8f6b;}</style></defs><g transform="translate(-742 -1683.2)"><g transform="translate(742 1683.199)"><path class="a" d="M0,27.8H4.651V23.153H0Zm5.788,0h4.65V23.153H5.788Zm5.786,0h4.651V23.153H11.574Zm5.788,0h4.651V23.153H17.362Zm5.788,0H27.8V23.153H23.15ZM0,22.012H4.651V17.365H0Zm5.788,0h4.65V17.365H5.788Zm5.786,0h4.651V17.365H11.574Zm5.788,0h4.651V17.365H17.362Zm5.788,0H27.8V17.365H23.15ZM0,16.224H4.651V11.577H0Zm5.788,0h4.65V11.577H5.788Zm5.786,0h4.651V11.577H11.574Zm5.788,0h4.651V11.577H17.362Zm5.788,0H27.8V11.577H23.15ZM0,10.435H4.651V5.788H0Zm5.788,0h4.65V5.788H5.788Zm5.786,0h4.651V5.788H11.574Zm5.788,0h4.651V5.788H17.362Zm5.788,0H27.8V5.788H23.15ZM0,4.647H4.651V0H0Zm5.788,0h4.65V0H5.788Zm5.786,0h4.651V0H11.574Zm5.788,0h4.651V0H17.362Zm5.788,0H27.8V0H23.15Z"/></g><path class="a" d="M765.15,1711v-4.648H769.8V1711Zm-5.788,0v-4.648h4.65V1711Zm-5.788,0v-4.648h4.65V1711Zm-5.787,0v-4.648h4.65V1711ZM742,1711v-4.648h4.651V1711Zm23.151-5.789v-4.647H769.8v4.647Zm-5.788,0v-4.647h4.65v4.647Zm-5.788,0v-4.647h4.65v4.647Zm-5.787,0v-4.647h4.65v4.647Zm-5.788,0v-4.647h4.651v4.647Zm23.151-5.788v-4.647H769.8v4.647Zm-5.788,0v-4.647h4.65v4.647Zm-5.788,0v-4.647h4.65v4.647Zm-5.787,0v-4.647h4.65v4.647Zm-5.788,0v-4.647h4.651v4.647Zm23.151-5.789v-4.647H769.8v4.647Zm-5.788,0v-4.647h4.65v4.647Zm-5.788,0v-4.647h4.65v4.647Zm-5.787,0v-4.647h4.65v4.647Zm-5.788,0v-4.647h4.651v4.647Zm23.151-5.788V1683.2H769.8v4.647Zm-5.788,0V1683.2h4.65v4.647Zm-5.788,0V1683.2h4.65v4.647Zm-5.787,0V1683.2h4.65v4.647Zm-5.788,0V1683.2h4.651v4.647Z"/></g></svg>