<svg xmlns="http://www.w3.org/2000/svg" width="27.6" height="27.6" viewBox="0 0 27.6 27.6"><defs><style>.a{fill:#ff8f6b;}</style></defs><g transform="translate(-661.4 -1683.4)"><g transform="translate(661.4 1683.399)"><path class="a" d="M0,27.6H5.454V22.144H0Zm7.382,0h5.454V22.144H7.382Zm7.381,0h5.455V22.144H14.763Zm7.383,0H27.6V22.144H22.146ZM0,20.22H5.454V14.763H0Zm7.382,0h5.454V14.763H7.382Zm7.381,0h5.455V14.763H14.763Zm7.383,0H27.6V14.763H22.146ZM0,12.838H5.454V7.382H0Zm7.382,0h5.454V7.382H7.382Zm7.381,0h5.455V7.382H14.763Zm7.383,0H27.6V7.382H22.146ZM0,5.457H5.454V0H0Zm7.382,0h5.454V0H7.382Zm7.381,0h5.455V0H14.763Zm7.383,0H27.6V0H22.146Z"/></g><path class="a" d="M683.546,1711v-5.457H689V1711Zm-7.383,0v-5.457h5.454V1711Zm-7.382,0v-5.457h5.454V1711Zm-7.382,0v-5.457h5.454V1711Zm22.146-7.381v-5.457H689v5.457Zm-7.383,0v-5.457h5.454v5.457Zm-7.382,0v-5.457h5.454v5.457Zm-7.382,0v-5.457h5.454v5.457Zm22.146-7.382v-5.456H689v5.456Zm-7.383,0v-5.456h5.454v5.456Zm-7.382,0v-5.456h5.454v5.456Zm-7.382,0v-5.456h5.454v5.456Zm22.146-7.38V1683.4H689v5.457Zm-7.383,0V1683.4h5.454v5.457Zm-7.382,0V1683.4h5.454v5.457Zm-7.382,0V1683.4h5.454v5.457Z"/></g></svg>