<svg xmlns="http://www.w3.org/2000/svg" xmlns:xlink="http://www.w3.org/1999/xlink" width="40.898" height="33.033" viewBox="0 0 40.898 33.033"><defs><style>.a{fill:none;}.b{clip-path:url(#a);}.c{fill:#e6edff;}</style><clipPath id="a"><rect class="a" width="40.898" height="33.033" transform="translate(0 0)"/></clipPath></defs><g class="b" transform="translate(0 0)"><path class="c" d="M2.95,0H38.085A2.821,2.821,0,0,1,40.9,2.822V8c-2.709.1-11.841-.16-19.694,3.777-6.753,3.385-9.437,7.962-10.007,9.2A9.073,9.073,0,0,0,.135,20.454V2.822A2.822,2.822,0,0,1,2.95,0M0,30.213V23.366a7.457,7.457,0,0,1,10.405.009A32.14,32.14,0,0,0,9,32.792a.819.819,0,0,0,.037.242H2.814A2.821,2.821,0,0,1,0,30.213m38.023,2.821H11.436a.794.794,0,0,0,.037-.242c0-3.053-1.436-10.211,7.375-17.081,7.068-5.512,20.766-5.465,21.99-5.512V30.213a2.822,2.822,0,0,1-2.815,2.821M11.794,13.158a4.182,4.182,0,1,0-4.17-4.181,4.18,4.18,0,0,0,4.17,4.181"/></g></svg>