<svg xmlns="http://www.w3.org/2000/svg" xmlns:xlink="http://www.w3.org/1999/xlink" width="28.067" height="28.067" viewBox="0 0 28.067 28.067"><defs><style>.a{fill:#ff8f6b;}.b{clip-path:url(#a);}</style><clipPath id="a"><rect class="a" width="28.067" height="28.067" transform="translate(0 0)"/></clipPath></defs><g transform="translate(-497.117 -1746.117)"><g transform="translate(497.117 1746.117)"><g class="b"><path class="a" d="M16.78,0H11.286A11.286,11.286,0,0,0,0,11.286V16.78A11.286,11.286,0,0,0,11.286,28.066H16.78A11.287,11.287,0,0,0,28.067,16.78V11.286A11.287,11.287,0,0,0,16.78,0M6.642,24.54a2.867,2.867,0,1,1,2.867-2.867A2.866,2.866,0,0,1,6.642,24.54m0-7.64a2.867,2.867,0,1,1,2.867-2.867A2.867,2.867,0,0,1,6.642,16.9m0-7.641A2.867,2.867,0,1,1,9.509,6.392,2.867,2.867,0,0,1,6.642,9.259M14.033,24.54A2.867,2.867,0,1,1,16.9,21.674a2.866,2.866,0,0,1-2.867,2.867m0-7.64A2.867,2.867,0,1,1,16.9,14.033,2.867,2.867,0,0,1,14.033,16.9m0-7.641A2.867,2.867,0,1,1,16.9,6.392a2.867,2.867,0,0,1-2.867,2.867M21.424,24.54a2.867,2.867,0,1,1,2.867-2.867,2.866,2.866,0,0,1-2.867,2.867m0-7.64a2.867,2.867,0,1,1,2.867-2.867A2.867,2.867,0,0,1,21.424,16.9m0-7.641a2.867,2.867,0,1,1,2.867-2.867,2.867,2.867,0,0,1-2.867,2.867"/></g></g><path class="a" d="M508.4,1774.184a11.286,11.286,0,0,1-11.286-11.287V1757.4a11.286,11.286,0,0,1,11.286-11.286H513.9a11.286,11.286,0,0,1,11.287,11.286v5.494a11.287,11.287,0,0,1-11.287,11.287Zm7.272-6.393a2.867,2.867,0,1,0,2.867-2.867A2.866,2.866,0,0,0,515.675,1767.791Zm-7.391,0a2.867,2.867,0,1,0,2.866-2.867A2.866,2.866,0,0,0,508.284,1767.791Zm-7.393,0a2.867,2.867,0,1,0,2.867-2.867A2.867,2.867,0,0,0,500.891,1767.791Zm14.783-7.64a2.867,2.867,0,1,0,2.867-2.867A2.866,2.866,0,0,0,515.675,1760.151Zm-7.391,0a2.867,2.867,0,1,0,2.866-2.867A2.866,2.866,0,0,0,508.284,1760.151Zm-7.393,0a2.867,2.867,0,1,0,2.867-2.867A2.867,2.867,0,0,0,500.891,1760.151Zm14.783-7.642a2.867,2.867,0,1,0,2.867-2.866A2.867,2.867,0,0,0,515.675,1752.509Zm-7.391,0a2.867,2.867,0,1,0,2.866-2.866A2.867,2.867,0,0,0,508.284,1752.509Zm-7.393,0a2.867,2.867,0,1,0,2.867-2.866A2.868,2.868,0,0,0,500.891,1752.509Z"/></g></svg>