<svg xmlns="http://www.w3.org/2000/svg" xmlns:xlink="http://www.w3.org/1999/xlink" width="100%" height="100%"
    viewBox="0 0 24 24">
    <defs>
        <style>
            .a {
                fill: #ff8f6b;
            }

            .b {
                clip-path: url(#a);
            }
        </style>
        <clipPath id="a">
            <rect class="a" width="24" height="24" transform="translate(0 0)" />
        </clipPath>
    </defs>
    <g transform="translate(0 0)">
        <g class="b">
            <path class="a"
                d="M15.6,0C11.52,0,8.209,1.445,8.209,3.23H8.2V5.7a7.714,7.714,0,0,0-.813-.044,7.269,7.269,0,1,0,0,14.537,7.5,7.5,0,0,0,2.445-.408A12.6,12.6,0,0,0,15.6,21c3.966,0,7.2-1.363,7.387-3.075H23V3.23C23,1.445,19.688,0,15.6,0m0,1.6c3.059,0,5.539.728,5.539,1.625S18.663,4.854,15.6,4.854s-5.538-.727-5.538-1.624S12.546,1.6,15.6,1.6M7.387,18.58a5.652,5.652,0,1,1,0-11.3,5.652,5.652,0,1,1,0,11.3m13.966-.713c-.629.752-2.815,1.528-5.748,1.528a14.356,14.356,0,0,1-4-.5,7.342,7.342,0,0,0,2.432-2.8c.5.048,1.028.073,1.565.073a12.64,12.64,0,0,0,5.748-1.2Zm0-4.834c-.629.753-2.815,1.529-5.748,1.529-.345,0-.683-.01-1.012-.028a7.185,7.185,0,0,0-.009-3.252c.341.02.68.031,1.021.031a12.64,12.64,0,0,0,5.748-1.2Zm0-4.854c-.629.753-2.815,1.528-5.748,1.528-.567,0-1.115-.026-1.631-.072A7.367,7.367,0,0,0,9.847,6.074V5.256a12.621,12.621,0,0,0,5.757,1.2,12.64,12.64,0,0,0,5.748-1.2ZM11.429,11.8c0,.748-1.516,1.907-1.516,2.241s.483,2.108.2,2.371c-.748.694-2.37-.5-2.729-.5s-1.981,1.2-2.729.5c-.208-.2,0-1.21.126-1.864.628-1.15,1.948-3.015,3.909-3.082a4.927,4.927,0,0,0-4.024,2.247c-.406-.5-1.324-1.329-1.324-1.913,0-.752,2.119-.809,2.4-1.131S6.8,8.682,7.387,8.682s1.361,1.672,1.643,2,2.4.374,2.4,1.122" />
        </g>
    </g>
</svg>