<svg xmlns="http://www.w3.org/2000/svg" width="29.121" height="28" viewBox="0 0 29.121 28"><defs><style>.a{fill:#ff8f6b;}</style></defs><g transform="translate(-575.44 -1746)"><g transform="translate(575.44 1746)"><path class="a" d="M6.59,28H22.53l-7.971-5.854Zm.151-1.979,6.547-4.809L9.241,18.239Zm9.092-4.809,6.545,4.809-2.5-7.781ZM4.926,26.776l3.044-9.471L0,11.451Zm16.225-9.471L24.2,26.777,29.12,11.451ZM1.909,10.984l6.547,4.809L10,10.984Zm9.665,0L9.728,16.727l4.832,3.55,4.833-3.55-1.845-5.743Zm7.546,0,1.545,4.809,6.546-4.809ZM12.059,9.472h5l-2.5-7.78Zm-11.423,0h9.851L13.531,0ZM15.59,0l3.044,9.472h9.85Z"/></g><path class="a" d="M582.03,1774l7.969-5.855,7.97,5.855Zm14.561-10.695,7.969-5.855-4.926,15.325Zm-21.151-5.855,7.97,5.855-3.044,9.471Zm15.833,9.761,4.046-2.972,2.5,7.78Zm-6.592-2.972,4.046,2.972-6.547,4.809Zm.486-1.512,1.847-5.744h5.973l1.845,5.744-4.833,3.55Zm9.392-5.744h8.091l-6.546,4.81Zm-17.212,0h8.092l-1.544,4.81Zm16.726-1.512L591.03,1746l12.894,9.472Zm-6.574,0,2.5-7.781,2.5,7.781Zm-11.423,0L588.971,1746l-3.044,9.472Z"/></g></svg>