<svg xmlns="http://www.w3.org/2000/svg" xmlns:xlink="http://www.w3.org/1999/xlink" width="27.9" height="27.9" viewBox="0 0 27.9 27.9"><defs><style>.a{fill:#ff8f6b;}.b{clip-path:url(#a);}</style><clipPath id="a"><rect class="a" width="27.9" height="27.9" transform="translate(0 0)"/></clipPath></defs><g transform="translate(-1063.1 -1683.1)"><g transform="translate(1063.1 1683.1)"><g class="b"><path class="a" d="M5.481,17.6H0V10.3H7.3v5.483Zm-1.993,3H0v7.3H7.3v-3.49L2.047,25.85Zm2.42,0H4.7l2.6,2.6V21.99ZM7.3,0H0V7.3H7.3ZM17.5,5.576l.106.106V0h-7.3V7.3h5.465ZM12.78,10.3H10.308v2.473Zm9.534.092L20.6,12.1v5.5h7.3V10.3H22.221ZM10.308,22.4v5.5h7.3V20.6H12.112ZM20.6,0V2.5a1.649,1.649,0,0,1,2.258-.032l2.557,2.558A1.653,1.653,0,0,1,25.373,7.3H27.9V0ZM15.106,17.6h2.5V15.1ZM20.6,27.9h7.3V20.6H20.6ZM18.7,6.773l-1.2-1.2L4.2,18.886l1.177,1.178Zm3.612,3.614-1.2-1.2L7.808,22.5l1.177,1.178ZM20.5,8.574l-1.2-1.2L6,20.686l1.178,1.178Z"/></g></g><path class="a" d="M1083.7,1711v-7.3h7.3v7.3Zm-10.292,0v-5.5l1.8-1.805h5.495v7.3Zm-10.308,0v-7.3h3.487l-1.44,5.253,5.251-1.441V1711Zm7.808-5.4,13.3-13.311,1.109,1.111H1091v7.3h-7.3v-5.5l1.714-1.714-.081-.08.077.076-13.324,13.29Zm-3.1-1.9h1.2l1.391,1.392v1.206Zm1.292.088,13.3-13.31,1.2,1.2-13.325,13.289Zm-1.8-1.8,2.809-2.811-1.525,1.526H1063.1v-7.3h7.3v5.483l3.009-3.01V1693.4h2.471l3.058-3.06-.064.064h-5.466v-7.3h7.3v5.681l1.091,1.093-13.324,13.29Zm10.909-1.285,2.5-2.5v2.5Zm10.267-10.3a1.653,1.653,0,0,0,.042-2.273l-2.557-2.558a1.647,1.647,0,0,0-2.258.032v-2.5h7.3v7.3Zm-25.373,0v-7.3h7.3v7.3Z"/></g></svg>