<svg xmlns="http://www.w3.org/2000/svg" xmlns:xlink="http://www.w3.org/1999/xlink" width="27.5" height="27.5" viewBox="0 0 27.5 27.5"><defs><style>.a{fill:#ff8f6b;}.b{clip-path:url(#a);}</style><clipPath id="a"><rect class="a" width="27.5" height="27.5" transform="translate(0 0)"/></clipPath></defs><g transform="translate(-1063.5 -1746.5)"><g transform="translate(1063.5 1746.5)"><g class="b"><path class="a" d="M15.745,17.269a.625.625,0,0,0,.1.087H11.654c.029-.029.073-.058.1-.087a2.633,2.633,0,0,1,1.779-.766h.434a2.633,2.633,0,0,1,1.778.766M17.354,0H10.159V4.223h7.195ZM10.165,27.495H17.35V20.307H10.165ZM7.187,4.238V0H0V7.2H.451A9.984,9.984,0,0,1,7.187,4.238M0,27.5H7.195V20.3H0Zm20.3-.006h7.2V20.307H20.3ZM20.305,0V4.245A10.052,10.052,0,0,1,27.059,7.2H27.5V0ZM27.5,13.422a1.215,1.215,0,0,1-.028.333l-.029.2c-.362,1.909-2.834,3.4-5.609,3.4a6.575,6.575,0,0,1-.766-.044,6.518,6.518,0,0,1-3.716-1.519c-.029-.029-.072-.058-.1-.087a4.783,4.783,0,0,0-3.281-1.375h-.434a4.784,4.784,0,0,0-3.282,1.375c-.029.028-.057.043-.086.072a6.477,6.477,0,0,1-3.73,1.533,6.6,6.6,0,0,1-.767.044c-2.776,0-5.247-1.49-5.609-3.4l-.028-.2a1.082,1.082,0,0,1-.029-.3,6,6,0,0,1,.043-.723,3.245,3.245,0,0,1,.087-.52.158.158,0,0,1,.015-.073c.029-.13.057-.26.086-.39.015-.015.015-.029.029-.057a7.006,7.006,0,0,1,.312-.844A7.61,7.61,0,0,1,7.65,6.393h12.2a7.61,7.61,0,0,1,7.1,4.5,6.585,6.585,0,0,1,.3.817,3.934,3.934,0,0,1,.1.4.642.642,0,0,1,.029.145,2.257,2.257,0,0,1,.073.434,6.047,6.047,0,0,1,.043.723m-13.83-.681-1.47-2.2,1.391-2.092H12.452l-.914,1.5h-.047l-.915-1.5H9.424l1.391,2.1L9.33,12.741h1.159l.994-1.582h.047l.97,1.582Zm5.4-4.906H18.055v4.158h-.048L16,7.835h-1.6v5.518h1.025V8.933h.048l2.177,4.421h1.415Z"/></g></g><path class="a" d="M1063.5,1774v-7.2h7.195v7.2Zm20.3,0v-7.189h7.2V1774Zm-10.133,0v-7.189h7.185V1774Zm10.9-10.184a6.51,6.51,0,0,1-3.715-1.518c-.03-.029-.072-.058-.1-.086a4.783,4.783,0,0,0-3.281-1.374h-.433a4.785,4.785,0,0,0-3.282,1.374c-.029.029-.058.043-.086.072a6.473,6.473,0,0,1-3.729,1.533,6.664,6.664,0,0,1-.767.044c-2.776,0-5.247-1.49-5.609-3.4l-.029-.2a1.09,1.09,0,0,1-.029-.3,5.935,5.935,0,0,1,.043-.724,3.165,3.165,0,0,1,.087-.519.163.163,0,0,1,.014-.074l.086-.39c.014-.014.014-.029.029-.058a6.959,6.959,0,0,1,.312-.843,7.609,7.609,0,0,1,7.075-4.45h12.2a7.611,7.611,0,0,1,7.1,4.5,6.562,6.562,0,0,1,.3.818,3.772,3.772,0,0,1,.1.405.631.631,0,0,1,.029.145,2.31,2.31,0,0,1,.073.433,6.108,6.108,0,0,1,.042.724,1.235,1.235,0,0,1-.028.333l-.03.2c-.362,1.909-2.833,3.4-5.609,3.4A6.636,6.636,0,0,1,1084.566,1763.812Zm-5.585-8.379,2.177,4.42h1.415v-5.517h-1.017v4.158h-.049l-2-4.158h-1.6v5.517h1.024v-4.42Zm-3.95,2.226.97,1.583h1.168l-1.471-2.2,1.391-2.092h-1.137l-.913,1.5h-.047l-.915-1.5h-1.151l1.391,2.1-1.486,2.2h1.16l.994-1.583Zm.124,6.2c.029-.03.073-.059.1-.087a2.637,2.637,0,0,1,1.779-.766h.433a2.637,2.637,0,0,1,1.778.766.688.688,0,0,0,.1.087ZM1063.5,1753.7v-7.2h7.185v4.238a9.981,9.981,0,0,0-6.737,2.965Zm27.057,0a10.042,10.042,0,0,0-6.755-2.953V1746.5H1091v7.2Zm-16.9-2.974V1746.5h7.195v4.224Z"/></g></svg>