<svg xmlns="http://www.w3.org/2000/svg" xmlns:xlink="http://www.w3.org/1999/xlink" width="25" height="32" viewBox="0 0 25 32"><defs><style>.a{fill:none;}.b{clip-path:url(#a);}.c{fill:#70708c;}</style><clipPath id="a"><rect class="a" width="25" height="32"/></clipPath></defs><g class="b"><path class="c" d="M24.443,25.905c-.933-1.611-1.986-4.559-2.792-10.15-1.113-7.7-3.97-10.77-6.2-11.983a5.117,5.117,0,0,0-1.572-.493V1.365a1.378,1.378,0,0,0-2.756,0V3.277a5.151,5.151,0,0,0-1.584.5c-2.231,1.213-5.087,4.28-6.2,11.983C2.532,21.346,1.48,24.294.546,25.905c-.85,1.469-.81,2.582.859,2.949a52.838,52.838,0,0,0,8.157,1.11,3.14,3.14,0,0,0,5.871.02,46.072,46.072,0,0,0,8.185-1.021c1.666-.383,1.675-1.589.825-3.058"/></g></svg>