<svg xmlns="http://www.w3.org/2000/svg" xmlns:xlink="http://www.w3.org/1999/xlink" width="98" height="57" viewBox="0 0 98 57"><defs><style>.a{fill:none;}.b{clip-path:url(#a);}.c{fill-rule:evenodd;}</style><clipPath id="a"><rect class="a" width="98" height="57" transform="translate(0 0)"/></clipPath></defs><g transform="translate(0 0)"><g class="b"><path class="c" d="M45.958,32.117l-5.221,2.845h5.221Zm44.772.642-8.513,9.817V32.216H78.309V47.09l-2.541,2.938,2.541-1.853V55.57H90.821L92.1,53.02H82.217v-7.69l8.513-6.2ZM74.393,36.38h.042V54.288L71.8,55.81V40.661h-2.5l3.551-8.4h3.3Zm-5.859,1.669H63.727l-4.695,5.358L54.4,38.049H49.593l7.018,8.12-8.092,9.246h4.807L59,48.935l5.6,6.479h4.813l-7.992-9.246ZM61.278,33.71V31.436L57.326,33.71H48.4v3.07H69.06l1.284-3.07ZM46.835,55.062c-.695-2.113-1.4-4.26-2.112-6.379l1.235-1.233V40.822l-2.533,3.93c-.674-2.034-1.327-4.007-1.951-5.894h4.484v-3.31H40.379c-.421-1.276-.821-2.48-1.193-3.6H36.4c.379,1.135.779,2.346,1.193,3.6H29.769v3.31h8.919c.961,2.9,1.958,5.908,2.9,8.747L35.86,57l.751-.049,6.021-6.177c.511,1.535.989,2.987,1.417,4.288Zm-23.979,0H36.077l1.733-2.795H29.095v-9.81h1.937v-2.8H29.095V31.949l-2.786,1.557v6.156H23.228l-.035,2.8h3.116v9.81H23.972Zm15.467-15.4H31.678V51.443h6.645Zm-3.86,3.971h1.074v4.338H34.463Zm-23.4-8.353h5.207V36.4H11.067Zm8.252,3.5,2.008,3.712V38.78Zm-3.361,0-2.007,3.712V38.78Zm-4.639,0,2.007,3.712V38.78Zm-3.284,0L6.028,42.492V38.78Zm.351,9.909h3.733v-.971H8.386Zm7.207-2.634h3.6l-.849,1.663H15.593v.971h3.818V45.146H15.593Zm-7.207,0h3.733v-.909H8.386Zm7.979,4.275v1.959h6.674l-1.067,2.773H13.011L13,51.55,8.836,55.062H4.4l5.7-4.732H5.011V43.59h3.5l.54-.767h3.832l-.464.767H22.779v4.775L19.516,50.33Zm1.734.387L17.025,51.97h6.063l.28-.7H20.084l.267-.522Zm-7.032-8.225V38.386h5.207v4.107H18.99V38.386h3.27V36.4H18.99V35.28h4.028l1.354-2.408H13.832V31.2l-3.025,1.677H1.621v.007H1.256V52.365L0,55.062H4.042V35.28H8.351V36.4H5.081v1.984h3.27v4.107Z"/><path class="c" d="M95.193,29.843a2.813,2.813,0,1,1-2.8,2.816,2.815,2.815,0,0,1,2.8-2.816M93.859,34.66V30.934h1.649a2.076,2.076,0,0,1,.751.106.819.819,0,0,1,.414.351,1.1,1.1,0,0,1,.155.564.9.9,0,0,1-.26.661,1.271,1.271,0,0,1-.786.345,1.333,1.333,0,0,1,.3.192,2.412,2.412,0,0,1,.406.492l.464.718a2.432,2.432,0,0,0,.695-1.7,2.457,2.457,0,1,0-1.039,2h-.091l-.491-.775a4.816,4.816,0,0,0-.358-.514.884.884,0,0,0-.246-.247.579.579,0,0,0-.224-.1,1.279,1.279,0,0,0-.274-.02H94.35V34.66Zm.491-2.077H95.4a1.727,1.727,0,0,0,.526-.07.608.608,0,0,0,.295-.226.628.628,0,0,0,.1-.331.537.537,0,0,0-.2-.437.888.888,0,0,0-.6-.169H94.35Z"/><path class="c" d="M.911,24.291V0H9.444l3.187,11.824c.287,1.044.539,2.057.771,3.042s.435,1.944.6,2.875c.21-.987.449-2.022.709-3.106s.567-2.247.9-3.486L18.623,0h8.519V24.291H21.486V13.521c0-.76.014-1.823.056-3.19s.091-2.951.176-4.74l-4.653,18.7H10.918L6.37,5.591c.078,2.155.133,4.093.176,5.818s.071,3.057.071,4.028v8.854ZM36.588,15.3a6.707,6.707,0,0,0,.9,3.774,3.174,3.174,0,0,0,5.158-.013,6.56,6.56,0,0,0,.912-3.761,6.53,6.53,0,0,0-.912-3.747,2.959,2.959,0,0,0-2.59-1.317,2.926,2.926,0,0,0-2.575,1.311,6.628,6.628,0,0,0-.891,3.753m-6,0A9.564,9.564,0,0,1,33.1,8.261a9.329,9.329,0,0,1,6.954-2.542A9.381,9.381,0,0,1,47.03,8.261,9.542,9.542,0,0,1,49.556,15.3a9.544,9.544,0,0,1-2.526,7.042,9.353,9.353,0,0,1-6.976,2.55,9.313,9.313,0,0,1-6.968-2.534,9.631,9.631,0,0,1-2.5-7.058m28.035,8.987V15.134L50.258,0h6.954l4.449,9.8L66.1,0h7L64.651,15.134v9.157ZM89.331,6.36V24.291H83.612V21.812A7.035,7.035,0,0,1,81.24,24.03a6.354,6.354,0,0,1-3.045.7,5.97,5.97,0,0,1-4.456-1.522,6.227,6.227,0,0,1-1.495-4.527V6.36h5.845V16.388a5.956,5.956,0,0,0,.554,3.042,2.115,2.115,0,0,0,1.909.838,2.518,2.518,0,0,0,2.232-1.014,6.03,6.03,0,0,0,.695-3.31V6.36Z"/></g></g></svg>