<svg xmlns="http://www.w3.org/2000/svg" width="27.8" height="27.8" viewBox="0 0 27.8 27.8"><defs><style>.a{fill:#ff8f6b;}</style></defs><g transform="translate(-743 -1746.2)"><g transform="translate(743 1746.2)"><path class="a" d="M0,27.8H9.874L0,17.926Zm17.926,0H27.8V17.926ZM.112,13.9,13.9,27.688,27.688,13.9,13.9.112ZM0,0V9.874L9.874,0ZM17.926,0,27.8,9.874V0Z"/></g><path class="a" d="M760.926,1774l9.874-9.874V1774ZM743,1774v-9.874l9.875,9.874Zm.112-13.9,13.788-13.788,13.788,13.788L756.9,1773.888Zm17.814-13.9H770.8v9.875Zm-17.926,0h9.875L743,1756.075Z"/></g></svg>