<svg xmlns="http://www.w3.org/2000/svg" xmlns:xlink="http://www.w3.org/1999/xlink" width="100%" height="100%"
    viewBox="0 0 24 24">
    <defs>
        <style>
            .a {
                fill: #ff8f6b;
            }

            .b {
                clip-path: url(#a);
            }
        </style>
        <clipPath id="a">
            <rect class="a" width="24" height="24" transform="translate(0 0)" />
        </clipPath>
    </defs>
    <g transform="translate(0 0)">
        <g class="b">
            <path class="a"
                d="M.255,10.427,10.386.256a.869.869,0,0,1,1.232,0L21.744,10.423a.877.877,0,0,1,0,1.237l-.008.008a.869.869,0,0,1-1.232,0L11.617,2.745a.867.867,0,0,0-1.231,0l-8.9,8.921A.873.873,0,0,1,.255,10.427m1.331,11.7V13.781a.879.879,0,0,1,.263-.626L10.386,4.8a.868.868,0,0,1,1.224.008l8.284,8.317a.88.88,0,0,1,.255.618v8.385a.873.873,0,0,1-.871.874H14.57a.873.873,0,0,1-.871-.874V15.666a.873.873,0,0,0-.871-.874H8.371a.873.873,0,0,0-.871.874v6.459A.873.873,0,0,1,6.629,23H2.457a.873.873,0,0,1-.871-.874" />
        </g>
    </g>
</svg>