<svg xmlns="http://www.w3.org/2000/svg" xmlns:xlink="http://www.w3.org/1999/xlink" width="31.936" height="24.388" viewBox="0 0 31.936 24.388"><defs><style>.a{fill:#fff;}.b{clip-path:url(#a);}</style><clipPath id="a"><rect class="a" width="31.936" height="24.388"/></clipPath></defs><g class="b"><path class="a" d="M10.476,17.07a.639.639,0,0,1,.641-.641h2.1l1.55-1.715a.64.64,0,0,1,1.023.093l1.345,2.2,2-6.366a.643.643,0,0,1,.587-.448.634.634,0,0,1,.62.4l2.93,7.23,1.844-5.99a.643.643,0,0,1,1.209-.051l1.889,4.645h3.081a.641.641,0,1,1,0,1.282H27.784a.646.646,0,0,1-.6-.4l-1.375-3.376-1.844,5.993a.645.645,0,0,1-.587.451h-.027a.641.641,0,0,1-.6-.4l-2.937-7.245-1.886,6.008a.643.643,0,0,1-.536.445.627.627,0,0,1-.626-.3l-1.634-2.675L13.978,17.5a.647.647,0,0,1-.475.211H11.116a.639.639,0,0,1-.641-.641M19.9,14.622l-1.354,4.312a1.281,1.281,0,0,1-1.056.886,1.26,1.26,0,0,1-1.258-.6l-1.189-1.946-.592.654a1.283,1.283,0,0,1-.949.421H11.116a1.279,1.279,0,1,1,0-2.558h1.817l1.359-1.5a1.278,1.278,0,0,1,2.04.187l.613,1,1.577-5.025a1.28,1.28,0,0,1,2.406-.1l2.027,5q.309-.325.6-.638l.945-3.07a1.275,1.275,0,0,1,2.008-.629,7.754,7.754,0,0,0-1.746-8.7,7.9,7.9,0,0,0-11.168,0,7.9,7.9,0,0,0-11.168,0C-.162,4.9-.732,9.249.969,11.928,5.56,19.158,13.13,24.2,13.13,24.2a.661.661,0,0,0,.933,0s3.632-3.463,6.948-6.832Z" transform="translate(0)"/></g></svg>