<svg xmlns="http://www.w3.org/2000/svg" xmlns:xlink="http://www.w3.org/1999/xlink" width="25.07" height="27.452" viewBox="0 0 25.07 27.452"><defs><style>.a{fill:#fff;}.b{clip-path:url(#a);}</style><clipPath id="a"><rect class="a" width="25.07" height="27.452"/></clipPath></defs><g class="b"><path class="a" d="M13.446,27.287c-.757,0-1.575-.008-2.46-.008C2.4,27.279,0,27.779,0,22.5A12.89,12.89,0,0,1,7.928,11.286a6.058,6.058,0,1,1,6.118,0,10.481,10.481,0,0,1,1.908.939,8.3,8.3,0,0,0-2.508,15.061M25.07,20.294a7.159,7.159,0,1,1-7.819-7.127c.217-.02.438-.031.661-.031a7.167,7.167,0,0,1,7.158,7.158M21.4,16.376H15.5a1.09,1.09,0,0,0,0,2.181H17.68l-4.328,4.324a1.09,1.09,0,0,0,1.541,1.543l4.33-4.326v2.179a1.09,1.09,0,0,0,2.181,0Z"/></g></svg>