<svg xmlns="http://www.w3.org/2000/svg" xmlns:xlink="http://www.w3.org/1999/xlink" width="30.428" height="27" viewBox="0 0 30.428 27"><defs><style>.a{fill:none;}.b{clip-path:url(#a);}.c{fill:#fff;}</style><clipPath id="a"><rect class="a" width="30.428" height="27"/></clipPath></defs><g class="b"><path class="c" d="M3.937,20.294q-.31-.384-.586-.792A11.574,11.574,0,0,1,1.365,13a11.8,11.8,0,0,1,.11-1.616L.761,8.793.732,8.687A13.017,13.017,0,0,0,4.686,22.993c-.27-.972-.535-1.926-.749-2.7m2.9,4.35Q4.222,15.18,1.607,5.715c-.066-.238-.229-.691-.229-.691S.9,4.993.658,4.98c-.094,0-.189,0-.283,0,0,.034,2.7,9.8,4.025,14.6.511,1.851,1.492,5.366,2.006,7.216.023.084.01.2.15.2.306,0,.612,0,.937,0-.068-.248-.6-2.134-.656-2.355m11.894-1.333v-.188a11.613,11.613,0,0,1-11.692-.132l.41,1.483.09.324a13.026,13.026,0,0,0,11.431-.251,3.288,3.288,0,0,1-.239-1.236m5.344-6.743v0h0m-7.145-2.33a3.306,3.306,0,0,1-3.581-5.4l6.394-6.394a5.658,5.658,0,0,0-.654-.052,6.787,6.787,0,0,0-3.329.878,43.292,43.292,0,0,0-3.74,2.446A11.58,11.58,0,0,1,8.636,7.429a6.071,6.071,0,0,1-4.106-.35A11.291,11.291,0,0,1,2.217,5.656c.025.128.037.213.059.293q1.683,6.057,3.367,12.114a.586.586,0,0,0,.224.339,10.965,10.965,0,0,0,2.2,1.326,6.032,6.032,0,0,0,4.355.258,13.989,13.989,0,0,0,3.6-1.974c.9-.617,1.783-1.264,2.711-1.806V12.8l-.712.712a3.288,3.288,0,0,1-1.094.726M13,0A12.978,12.978,0,0,0,2.623,5.167c.4.3.769.562,1.122.78A11.661,11.661,0,0,1,8.471,2.279a11.685,11.685,0,0,1,8.515-.213A6.6,6.6,0,0,1,19.1,1.757q.237.005.477.029A12.938,12.938,0,0,0,13,0m3.634,12.978c.03-.016.059-.032.088-.049l-.088.049m-.953.233h0m-.759-.149.093.035-.093-.035m-.268-.133q.043.025.088.049c-.03-.016-.059-.032-.088-.049"/><path class="c" d="M101.3,22.754a2.035,2.035,0,0,1-2.878,0l-2.876-2.876,0,5.526v4.553h0v3.506a2.036,2.036,0,0,1-3.986.583h0L91.542,34v0c0-.016-.009-.033-.013-.049v-.005l-.008-.035-.008-.036-.007-.034c0-.021-.007-.042-.011-.063l0-.017c0-.01,0-.02,0-.03l0-.029v-.013l0-.023V33.64c0-.008,0-.017,0-.026s0-.023,0-.035,0-.008,0-.012,0-.019,0-.029,0-.022,0-.032,0-.03,0-.045l0-7.753,0-5.826-2.881,2.881a2.035,2.035,0,0,1-.405.314l-.088.049a1.984,1.984,0,0,1-.194.089l-.067.025-.074.025q-.07.022-.141.039l-.02,0-.03.007-.036.007-.038.007-.077.012-.038,0-.077.007-.077,0h-.2l-.039,0h-.018l-.03,0-.044,0-.033,0-.032,0h-.009l-.036-.006-.041-.008-.036-.008q-.1-.021-.188-.051l-.047-.016-.093-.035-.046-.019-.09-.042-.045-.023-.087-.049a2.037,2.037,0,0,1-.405-3.193l6.922-6.922.876-.876,7.787,7.787a2.036,2.036,0,0,1,0,2.879" transform="translate(-71.469 -10.149)"/></g></svg>