<svg xmlns="http://www.w3.org/2000/svg" xmlns:xlink="http://www.w3.org/1999/xlink" width="26" height="24.303" viewBox="0 0 26 24.303"><defs><style>.a{fill:#fff;}.b{clip-path:url(#a);}</style><clipPath id="a"><rect class="a" width="26" height="24.303"/></clipPath></defs><g class="b"><path class="a" d="M24.129,3.957H22.222l.145-1.477c.006-.063.008-.126.009-.189A2.273,2.273,0,0,0,20.105,0H5.883c-.073,0-.147,0-.218.011A2.262,2.262,0,0,0,3.633,2.48l.145,1.477H1.871A1.871,1.871,0,0,0,0,5.828v.389a7.914,7.914,0,0,0,4.894,7.316A9.679,9.679,0,0,0,9,18.945a7.488,7.488,0,0,0,3.155,1.114v2.549H7.113a.879.879,0,0,0-.893.8.847.847,0,0,0,.846.892H18.887a.879.879,0,0,0,.893-.8.847.847,0,0,0-.846-.892H13.847V20.059A7.508,7.508,0,0,0,17,18.945a9.691,9.691,0,0,0,4.081-5.337l.021-.076A7.914,7.914,0,0,0,26,6.216V5.828a1.871,1.871,0,0,0-1.871-1.871M1.7,6.216a.565.565,0,0,1,.565-.565H3.943l.563,5.766A6.208,6.208,0,0,1,1.7,6.216m15.749,2.5a.81.81,0,0,1-.235.463L16,10.365a.81.81,0,0,0-.232.716l.287,1.672a.809.809,0,0,1-1.174.853l-1.5-.789a.808.808,0,0,0-.753,0l-1.5.789a.809.809,0,0,1-1.173-.853l.287-1.672A.81.81,0,0,0,10,10.365L8.79,9.181a.81.81,0,0,1-.056-1.1c.013-.015.027-.03.041-.044A.808.808,0,0,1,9.238,7.8l1.677-.244a.809.809,0,0,0,.609-.443l.751-1.522a.808.808,0,0,1,1.45,0l.751,1.522a.808.808,0,0,0,.608.443l1.678.244a.809.809,0,0,1,.684.918m4.048,2.7.563-5.766h1.681a.565.565,0,0,1,.565.565,6.208,6.208,0,0,1-2.809,5.2"/></g></svg>