<svg xmlns="http://www.w3.org/2000/svg" width="22.596" height="27" viewBox="0 0 22.596 27"><defs><style>.a{fill:#fff;}</style></defs><path class="a" d="M123.574,61.017a12.957,12.957,0,0,0-5.951,2.3.494.494,0,0,1-.728-.1l-2.926-4.493A1.191,1.191,0,0,1,115,56.889h5.717a1.228,1.228,0,0,1,.985.484l2.193,2.889a.475.475,0,0,1-.323.755m12.61-2.3-2.9,4.495a.5.5,0,0,1-.731.1,12.881,12.881,0,0,0-5.947-2.3.473.473,0,0,1-.323-.752l2.153-2.883a1.236,1.236,0,0,1,.993-.492h5.72a1.19,1.19,0,0,1,1.038,1.824m-5.347,13.522-2.185,2.056.516,2.9c.173.975-.4,1.4-1.327.931l-2.7-1.372-2.7,1.372c-.905.46-1.5.061-1.327-.931l.516-2.905-2.187-2.053c-.734-.691-.525-1.361.508-1.506l3.018-.424,1.349-2.639c.452-.888,1.178-.9,1.641,0l1.351,2.639,3.018.423c1.015.144,1.256.807.507,1.506m-5.691-9.74a10.7,10.7,0,1,0,11.075,10.7,10.891,10.891,0,0,0-11.075-10.7" transform="translate(-113.777 -56.889)"/></svg>