<svg xmlns="http://www.w3.org/2000/svg" xmlns:xlink="http://www.w3.org/1999/xlink" width="26.65" height="25.223" viewBox="0 0 26.65 25.223"><defs><style>.a{fill:#fff;}.b{clip-path:url(#a);}</style><clipPath id="a"><rect class="a" width="26.65" height="25.223"/></clipPath></defs><g class="b"><path class="a" d="M5.145,28.427c-1.388-.045-2.326-.187-2.736-.595a3.112,3.112,0,0,1-.48-2.127,9.061,9.061,0,0,1,5.5-7.771A.964.964,0,0,0,7.585,16.2,3.722,3.722,0,0,1,9.463,9.261a2.831,2.831,0,0,1,.425.025.854.854,0,0,0,.809-.931c0-.889-.884-1.023-1.233-1.023a5.648,5.648,0,0,0-4.15,9.482,10.933,10.933,0,0,0-3.406,3.23A10.209,10.209,0,0,0,0,25.705c0,1.718.314,2.763,1.048,3.494.85.846,2.094,1.091,4.022,1.156A.907.907,0,0,0,6,29.33a.883.883,0,0,0-.859-.9" transform="translate(0 -6.277)"/><path class="a" d="M57.043,10.431a5.6,5.6,0,1,0-5.653,0A11.908,11.908,0,0,0,44.063,20.8c0,4.877,2.219,4.415,10.153,4.415S64.37,25.673,64.37,20.8a11.908,11.908,0,0,0-7.327-10.365" transform="translate(-37.719)"/></g></svg>