<svg xmlns="http://www.w3.org/2000/svg" xmlns:xlink="http://www.w3.org/1999/xlink" width="26" height="26" viewBox="0 0 26 26"><defs><style>.a{fill:none;}.b{clip-path:url(#a);}.c{fill:#fff;}</style><clipPath id="a"><rect class="a" width="26" height="26"/></clipPath></defs><g class="b"><path class="c" d="M23.637,0H2.363A2.364,2.364,0,0,0,0,2.364V23.637A2.364,2.364,0,0,0,2.363,26H23.637A2.364,2.364,0,0,0,26,23.637V2.364A2.364,2.364,0,0,0,23.637,0m-13,2.364h4.727V8.273H10.636ZM8.273,23.637H2.363V17.728h5.91Zm0-8.273H2.363V10.636h5.91Zm0-7.09H2.363V2.364h5.91Zm7.09,15.364H10.636V17.728h4.727ZM15.9,11.119l-2.9,4.965-2.832-1.462a.768.768,0,0,1,.7-1.365l1.537.793,2.169-3.707a.768.768,0,1,1,1.326.776m7.739,12.518h-5.91V17.728h5.91Zm0-8.273H17.728V10.636h5.909Zm0-7.09h-5.91V2.364h5.91Z"/></g></svg>