<svg xmlns="http://www.w3.org/2000/svg" xmlns:xlink="http://www.w3.org/1999/xlink" width="27" height="26.661" viewBox="0 0 27 26.661"><defs><style>.a{fill:none;}.b{clip-path:url(#a);}.c{fill:#fff;}</style><clipPath id="a"><rect class="a" width="27" height="26.661"/></clipPath></defs><g transform="translate(0 0.005)"><g class="b" transform="translate(0 -0.005)"><path class="c" d="M.37,4.917c.093,0,.187-.008.28,0,.243.012.712.043.712.043s.161.447.226.682Q4.17,14.984,6.751,24.33c.06.218.581,2.081.648,2.325-.321,0-.623,0-.925,0-.139,0-.125-.112-.148-.194-.507-1.827-1.476-5.3-1.981-7.126C3.036,14.592.37,4.95.37,4.917M26.983,16.788a12.465,12.465,0,0,0-1.958-1.249,6.1,6.1,0,0,0-5.549-.057,26.572,26.572,0,0,0-3.653,2.3,13.818,13.818,0,0,1-3.555,1.95,5.957,5.957,0,0,1-4.3-.255,10.822,10.822,0,0,1-2.173-1.309.579.579,0,0,1-.221-.334Q3.912,11.85,2.247,5.87c-.022-.079-.033-.163-.058-.29A11.149,11.149,0,0,0,4.473,6.985a5.994,5.994,0,0,0,4.054.346,11.435,11.435,0,0,0,3.341-1.692,42.757,42.757,0,0,1,3.693-2.415,6.7,6.7,0,0,1,3.288-.867,6.705,6.705,0,0,1,3.133.924,12.424,12.424,0,0,1,1.433.951.482.482,0,0,1,.191.284Q25.3,10.621,27,16.722c0,.008,0,.02-.017.066M3.7,5.868A11.52,11.52,0,0,1,8.365,2.246a11.538,11.538,0,0,1,8.408-.21,6.519,6.519,0,0,1,2.089-.305q.235,0,.471.028A12.842,12.842,0,0,0,2.591,5.1c.394.3.76.555,1.108.77M24.747,16.1a6.657,6.657,0,0,0-.8-.335,11.438,11.438,0,0,1-1.583,3.486,11.525,11.525,0,0,1-5.055,4.163A11.467,11.467,0,0,1,6.951,22.7l.4,1.465.089.32a12.846,12.846,0,0,0,17.743-8.146c-.15-.085-.3-.163-.441-.235M3.888,20.035q-.306-.379-.578-.782a11.428,11.428,0,0,1-1.961-6.422,11.628,11.628,0,0,1,.109-1.6L.752,8.678l-.029-.1A12.852,12.852,0,0,0,4.628,22.7c-.267-.959-.529-1.9-.74-2.665" transform="translate(0 0.005)"/></g></g></svg>