<svg xmlns="http://www.w3.org/2000/svg" width="32.667" height="28" viewBox="0 0 32.667 28"><defs><style>.a{fill:#ff8f6b;}</style></defs><g transform="translate(-657.667 -1746)"><g transform="translate(657.667 1746)"><path class="a" d="M0,28H9.285L4.642,20.042Zm11.691,0h9.285l-4.643-7.958Zm11.691,0h9.285l-4.642-7.958ZM5.863,19.339,10.506,27.3l4.642-7.959Zm11.656,0L22.161,27.3,26.8,19.339ZM5.863,18.017h9.285l-4.642-7.959Zm11.656,0H26.8l-4.643-7.959ZM11.691,9.281l4.642,7.958,4.643-7.958ZM16.333,0,11.691,7.959h9.285Z"/></g><path class="a" d="M681.049,1774l4.642-7.958,4.642,7.958Zm-11.691,0,4.642-7.958,4.642,7.958Zm-11.691,0,4.642-7.958,4.643,7.958Zm17.518-8.661h9.285l-4.643,7.959Zm-11.656,0h9.285l-4.642,7.959Zm11.656-1.322,4.642-7.959,4.643,7.959Zm-11.656,0,4.643-7.959,4.642,7.959Zm5.828-8.735h9.284L674,1763.24Zm0-1.323L674,1746l4.642,7.959Z"/></g></svg>