<svg xmlns="http://www.w3.org/2000/svg" width="27.8" height="27.8" viewBox="0 0 27.8 27.8"><defs><style>.a{fill:#ff8f6b;}</style></defs><g transform="translate(-902.2 -1683.2)"><g transform="translate(902.2 1683.199)"><path class="a" d="M0,27.8H3.386V24.407H0Zm4.069,0H7.454V24.407H4.069Zm4.069,0h3.386V24.407H8.138Zm4.07,0h3.386V24.407H12.207Zm4.069,0h3.386V24.407H16.276Zm4.07,0h3.386V24.407H20.346Zm4.068,0H27.8V24.407H24.414ZM0,23.733H3.386V20.34H0Zm4.069,0H7.454V20.34H4.069Zm4.069,0h3.386V20.34H8.138Zm4.07,0h3.386V20.34H12.207Zm4.069,0h3.386V20.34H16.276Zm4.07,0h3.386V20.34H20.346Zm4.068,0H27.8V20.34H24.414ZM0,19.665H3.386V16.272H0Zm4.069,0H7.454V16.272H4.069Zm4.069,0h3.386V16.272H8.138Zm4.07,0h3.386V16.272H12.207Zm4.069,0h3.386V16.272H16.276Zm4.07,0h3.386V16.272H20.346Zm4.068,0H27.8V16.272H24.414ZM0,15.6H3.386V12.2H0Zm4.069,0H7.454V12.2H4.069Zm4.069,0h3.386V12.2H8.138Zm4.07,0h3.386V12.2H12.207Zm4.069,0h3.386V12.2H16.276Zm4.07,0h3.386V12.2H20.346Zm4.068,0H27.8V12.2H24.414ZM0,11.529H3.386V8.136H0Zm4.069,0H7.454V8.136H4.069Zm4.069,0h3.386V8.136H8.138Zm4.07,0h3.386V8.136H12.207Zm4.069,0h3.386V8.136H16.276Zm4.07,0h3.386V8.136H20.346Zm4.068,0H27.8V8.136H24.414ZM0,7.462H3.386V4.068H0Zm4.069,0H7.454V4.068H4.069Zm4.069,0h3.386V4.068H8.138Zm4.07,0h3.386V4.068H12.207Zm4.069,0h3.386V4.068H16.276Zm4.07,0h3.386V4.068H20.346Zm4.068,0H27.8V4.068H24.414ZM0,3.393H3.386V0H0Zm4.069,0H7.454V0H4.069Zm4.069,0h3.386V0H8.138Zm4.07,0h3.386V0H12.207Zm4.069,0h3.386V0H16.276Zm4.07,0h3.386V0H20.346Zm4.068,0H27.8V0H24.414Z"/></g><path class="a" d="M926.614,1711v-3.393H930V1711Zm-4.068,0v-3.393h3.385V1711Zm-4.07,0v-3.393h3.386V1711Zm-4.069,0v-3.393h3.387V1711Zm-4.07,0v-3.393h3.387V1711Zm-4.069,0v-3.393h3.386V1711Zm-4.069,0v-3.393h3.387V1711Zm24.414-4.067v-3.394H930v3.394Zm-4.068,0v-3.394h3.385v3.394Zm-4.07,0v-3.394h3.386v3.394Zm-4.069,0v-3.394h3.387v3.394Zm-4.07,0v-3.394h3.387v3.394Zm-4.069,0v-3.394h3.386v3.394Zm-4.069,0v-3.394h3.387v3.394Zm24.414-4.069v-3.393H930v3.393Zm-4.068,0v-3.393h3.385v3.393Zm-4.07,0v-3.393h3.386v3.393Zm-4.069,0v-3.393h3.387v3.393Zm-4.07,0v-3.393h3.387v3.393Zm-4.069,0v-3.393h3.386v3.393Zm-4.069,0v-3.393h3.387v3.393Zm24.414-4.067V1695.4H930v3.393Zm-4.068,0V1695.4h3.385v3.393Zm-4.07,0V1695.4h3.386v3.393Zm-4.069,0V1695.4h3.387v3.393Zm-4.07,0V1695.4h3.387v3.393Zm-4.069,0V1695.4h3.386v3.393Zm-4.069,0V1695.4h3.387v3.393Zm24.414-4.068v-3.393H930v3.393Zm-4.068,0v-3.393h3.385v3.393Zm-4.07,0v-3.393h3.386v3.393Zm-4.069,0v-3.393h3.387v3.393Zm-4.07,0v-3.393h3.387v3.393Zm-4.069,0v-3.393h3.386v3.393Zm-4.069,0v-3.393h3.387v3.393Zm24.414-4.068v-3.393H930v3.393Zm-4.068,0v-3.393h3.385v3.393Zm-4.07,0v-3.393h3.386v3.393Zm-4.069,0v-3.393h3.387v3.393Zm-4.07,0v-3.393h3.387v3.393Zm-4.069,0v-3.393h3.386v3.393Zm-4.069,0v-3.393h3.387v3.393Zm24.414-4.068V1683.2H930v3.393Zm-4.068,0V1683.2h3.385v3.393Zm-4.07,0V1683.2h3.386v3.393Zm-4.069,0V1683.2h3.387v3.393Zm-4.07,0V1683.2h3.387v3.393Zm-4.069,0V1683.2h3.386v3.393Zm-4.069,0V1683.2h3.387v3.393Z"/></g></svg>