<svg xmlns="http://www.w3.org/2000/svg" xmlns:xlink="http://www.w3.org/1999/xlink" width="27.566" height="27.567" viewBox="0 0 27.566 27.567"><defs><style>.a{fill:#ff8f6b;}.b{clip-path:url(#a);}</style><clipPath id="a"><rect class="a" width="27.566" height="27.567" transform="translate(0 0)"/></clipPath></defs><g transform="translate(-417.717 -1746.716)"><g transform="translate(417.717 1746.717)"><g class="b"><path class="a" d="M0,4.347V0H5.526A1.512,1.512,0,0,0,4.19,1.415a1.519,1.519,0,0,0-.75-.2H3.194A1.528,1.528,0,0,0,1.668,2.743V4.218a1.513,1.513,0,0,0-.619-.132H.8a1.482,1.482,0,0,0-.8.261M7.214.669V0H6.144a1.493,1.493,0,0,1,1.07.669m13.141,26.9h7.211V20.351H20.355Zm0-10.176h7.211V10.175H20.355Zm0-10.175h7.211V0H20.355Zm-10.17,0H17.4V0H10.185Zm2.3,14.259a2.094,2.094,0,0,1-.015.289,5.91,5.91,0,0,1-2.283,4.34v1.463H17.4V20.351H12.484Zm0-10.884v6.8H17.4V10.175h-5a1.481,1.481,0,0,1,.084.415m-6.2,16.976h.926v-.091a7.225,7.225,0,0,1-.926.091M0,24.244v3.323h5.4A6.636,6.636,0,0,1,0,24.244M11.722,10.362a.808.808,0,0,0-.768-.58h-.217a.8.8,0,0,0-.8.812V14.03H9.259V2.736a.786.786,0,0,0-.8-.8H8.245a.8.8,0,0,0-.8.8V12.769H6.767V1.49a.808.808,0,0,0-.812-.8H5.709a.8.8,0,0,0-.8.8V12.769H4.246V2.736a.8.8,0,0,0-.812-.8H3.188a.8.8,0,0,0-.8.8V12.769H1.855V5.607a.807.807,0,0,0-.811-.8H.8a.8.8,0,0,0-.8.8V21.468a5.422,5.422,0,0,0,.217,1.464,5.835,5.835,0,0,0,5.666,3.944,5.342,5.342,0,0,0,.681-.044c.217-.029.435-.058.652-.1a5.87,5.87,0,0,0,2.971-1.624c.13-.116.217-.217.334-.333a5.849,5.849,0,0,0,.551-.783l.217-.434a2.553,2.553,0,0,0,.232-.58c.029-.1.058-.2.087-.319a4.343,4.343,0,0,0,.1-.464,2.816,2.816,0,0,0,.044-.493,1.243,1.243,0,0,0,.015-.232V10.594a.6.6,0,0,0-.044-.232"/></g></g><path class="a" d="M438.072,1774.283v-7.215h7.211v7.215Zm-10.17,0v-1.463a5.9,5.9,0,0,0,2.283-4.34,2.057,2.057,0,0,0,.015-.29v-1.123h4.913v7.215Zm-3.882,0a7.174,7.174,0,0,0,.911-.09v.09Zm-6.3,0v-3.322a6.635,6.635,0,0,0,5.391,3.322Zm.214-4.634a5.418,5.418,0,0,1-.217-1.464v-15.861a.8.8,0,0,1,.8-.8h.247a.807.807,0,0,1,.811.8v7.162h.536v-10.033a.8.8,0,0,1,.8-.8h.246a.8.8,0,0,1,.812.8v10.033h.667v-11.28a.8.8,0,0,1,.8-.8h.247a.808.808,0,0,1,.812.8v11.28h.68v-10.033a.8.8,0,0,1,.8-.8h.217a.786.786,0,0,1,.8.8v11.294h.68v-3.436a.8.8,0,0,1,.8-.812h.217a.81.81,0,0,1,.769.58.609.609,0,0,1,.043.232v10.874a1.26,1.26,0,0,1-.014.232,2.759,2.759,0,0,1-.044.492,4.4,4.4,0,0,1-.1.464c-.029.116-.059.217-.087.319a2.532,2.532,0,0,1-.232.58c-.072.145-.145.289-.217.435a5.883,5.883,0,0,1-.55.783c-.117.116-.2.217-.334.333a5.875,5.875,0,0,1-2.971,1.625c-.217.043-.435.072-.652.1a5.219,5.219,0,0,1-.68.044A5.836,5.836,0,0,1,417.934,1769.648Zm20.138-5.541v-7.216h7.211v7.216Zm-7.871,0v-6.8a1.491,1.491,0,0,0-.084-.415h5v7.215Zm7.871-10.175v-7.215h7.211v7.215Zm-10.17,0v-7.215h7.212v7.215Zm-10.183-7.215h5.524a1.376,1.376,0,0,1-2.088,1.217h-.245a1.528,1.528,0,0,0-1.525,1.526v1.475a1.515,1.515,0,0,0-.619-.131h-.246a1.483,1.483,0,0,0-.8.26Zm6.142,0h1.07v.669A1.493,1.493,0,0,0,423.861,1746.716Z"/></g></svg>