<svg xmlns="http://www.w3.org/2000/svg" width="27.8" height="27.8" viewBox="0 0 27.8 27.8"><defs><style>.a{fill:#ff8f6b;}</style></defs><g transform="translate(-822 -1683.2)"><g transform="translate(822 1683.199)"><path class="a" d="M0,27.8H3.856V23.943H0Zm4.788,0H8.644V23.943H4.788Zm4.789,0h3.856V23.943H9.578Zm4.788,0h3.856V23.943H14.366Zm4.79,0h3.856V23.943H19.156Zm4.788,0H27.8V23.943H23.944ZM0,23.012H3.856V19.154H0Zm4.788,0H8.644V19.154H4.788Zm4.789,0h3.856V19.154H9.578Zm4.788,0h3.856V19.154H14.366Zm4.79,0h3.856V19.154H19.156Zm4.788,0H27.8V19.154H23.944ZM0,18.224H3.856V14.366H0Zm4.788,0H8.644V14.366H4.788Zm4.789,0h3.856V14.366H9.578Zm4.788,0h3.856V14.366H14.366Zm4.79,0h3.856V14.366H19.156Zm4.788,0H27.8V14.366H23.944ZM0,13.435H3.856V9.578H0Zm4.788,0H8.644V9.578H4.788Zm4.789,0h3.856V9.578H9.578Zm4.788,0h3.856V9.578H14.366Zm4.79,0h3.856V9.578H19.156Zm4.788,0H27.8V9.578H23.944ZM0,8.647H3.856V4.789H0Zm4.788,0H8.644V4.789H4.788Zm4.789,0h3.856V4.789H9.578Zm4.788,0h3.856V4.789H14.366Zm4.79,0h3.856V4.789H19.156Zm4.788,0H27.8V4.789H23.944ZM0,3.857H3.856V0H0Zm4.788,0H8.644V0H4.788Zm4.789,0h3.856V0H9.578Zm4.788,0h3.856V0H14.366Zm4.79,0h3.856V0H19.156Zm4.788,0H27.8V0H23.944Z"/></g><path class="a" d="M845.944,1711v-3.857H849.8V1711Zm-4.788,0v-3.857h3.856V1711Zm-4.79,0v-3.857h3.856V1711Zm-4.789,0v-3.857h3.856V1711Zm-4.789,0v-3.857h3.856V1711ZM822,1711v-3.857h3.856V1711Zm23.945-4.789v-3.857H849.8v3.857Zm-4.788,0v-3.857h3.856v3.857Zm-4.79,0v-3.857h3.856v3.857Zm-4.789,0v-3.857h3.856v3.857Zm-4.789,0v-3.857h3.856v3.857Zm-4.789,0v-3.857h3.856v3.857Zm23.945-4.788v-3.857H849.8v3.857Zm-4.788,0v-3.857h3.856v3.857Zm-4.79,0v-3.857h3.856v3.857Zm-4.789,0v-3.857h3.856v3.857Zm-4.789,0v-3.857h3.856v3.857Zm-4.789,0v-3.857h3.856v3.857Zm23.945-4.789v-3.857H849.8v3.857Zm-4.788,0v-3.857h3.856v3.857Zm-4.79,0v-3.857h3.856v3.857Zm-4.789,0v-3.857h3.856v3.857Zm-4.789,0v-3.857h3.856v3.857Zm-4.789,0v-3.857h3.856v3.857Zm23.945-4.788v-3.857H849.8v3.857Zm-4.788,0v-3.857h3.856v3.857Zm-4.79,0v-3.857h3.856v3.857Zm-4.789,0v-3.857h3.856v3.857Zm-4.789,0v-3.857h3.856v3.857Zm-4.789,0v-3.857h3.856v3.857Zm23.945-4.789V1683.2H849.8v3.857Zm-4.788,0V1683.2h3.856v3.857Zm-4.79,0V1683.2h3.856v3.857Zm-4.789,0V1683.2h3.856v3.857Zm-4.789,0V1683.2h3.856v3.857Zm-4.789,0V1683.2h3.856v3.857Z"/></g></svg>