<svg xmlns="http://www.w3.org/2000/svg" xmlns:xlink="http://www.w3.org/1999/xlink" width="100%" height="100%"
    viewBox="0 0 24 24">
    <defs>
        <style>
            .a {
                fill: #ff8f6b;
            }

            .b {
                clip-path: url(#a);
            }
        </style>
        <clipPath id="a">
            <rect class="a" width="24" height="24" transform="translate(0 0)" />
        </clipPath>
    </defs>
    <g transform="translate(0 0)">
        <g class="b">
            <path class="a"
                d="M19.975,19H3.875A3.812,3.812,0,0,1,0,15.2V3.8A3.811,3.811,0,0,1,3.875,0H20.124A3.812,3.812,0,0,1,24,3.8V15.346A3.922,3.922,0,0,1,19.975,19M3.875,1.461A2.333,2.333,0,0,0,1.49,3.8V15.346a2.332,2.332,0,0,0,2.385,2.339H20.124a2.332,2.332,0,0,0,2.385-2.339V3.8a2.332,2.332,0,0,0-2.385-2.339Zm4.621,9.5A3.276,3.276,0,0,1,5.218,7.746a3.28,3.28,0,0,1,6.559,0A3.184,3.184,0,0,1,8.5,10.961m0-4.969A1.936,1.936,0,0,0,6.559,7.746,1.936,1.936,0,0,0,8.5,9.5a1.706,1.706,0,0,0,1.789-1.754A1.8,1.8,0,0,0,8.5,5.992m4.92,8.769a.987.987,0,0,1-.745-.585A3.92,3.92,0,0,0,8.5,10.961a3.7,3.7,0,0,0-4.024,3.216.817.817,0,0,1-.894.585c-.448-.146-.745-.439-.6-.877A5.442,5.442,0,0,1,8.5,9.5a5.209,5.209,0,0,1,5.515,4.385c.15.438-.149.731-.6.877m6.708-6.723H15.652a.731.731,0,1,1,0-1.462h4.472a.731.731,0,1,1,0,1.462m-2.981,3.508H15.652a.731.731,0,1,1,0-1.462h1.491a.731.731,0,1,1,0,1.462" />
        </g>
    </g>
</svg>