<svg xmlns="http://www.w3.org/2000/svg" xmlns:xlink="http://www.w3.org/1999/xlink" width="100%" height="100%"
    viewBox="0 0 24 24">
    <defs>
        <style>
            .a {
                fill: #ff8f6b;
            }

            .b {
                clip-path: url(#a);
            }
        </style>
        <clipPath id="a">
            <rect class="a" width="24" height="24" transform="translate(0 0)" />
        </clipPath>
    </defs>
    <g transform="translate(0 0)">
        <g class="b">
            <path class="a"
                d="M20.474,12.292a.333.333,0,0,0-.178-.564l-.923-.138a.323.323,0,0,1-.243-.181l-.412-.859a.318.318,0,0,0-.578,0l-.412.859a.322.322,0,0,1-.242.181l-.923.138a.333.333,0,0,0-.178.564l.668.67a.335.335,0,0,1,.092.292l-.157.945a.324.324,0,0,0,.468.349l.825-.446a.315.315,0,0,1,.3,0l.826.446a.324.324,0,0,0,.468-.349l-.158-.945a.335.335,0,0,1,.093-.292ZM7.041,10.045a.412.412,0,0,0-.22-.7L5.682,9.177a.4.4,0,0,1-.3-.223l-.51-1.061a.393.393,0,0,0-.713,0L3.65,8.954a.4.4,0,0,1-.3.223l-1.139.171a.411.411,0,0,0-.219.7l.824.825a.419.419,0,0,1,.114.362L2.736,12.4a.4.4,0,0,0,.576.431l1.019-.551a.388.388,0,0,1,.37,0l1.018.551A.4.4,0,0,0,6.3,12.4L6.1,11.232a.419.419,0,0,1,.114-.362Zm9.134-7.229a.854.854,0,0,0-.747-.448H13.92L12.726.413a.845.845,0,0,0-1.452,0L10.08,2.368H8.571a.853.853,0,0,0-.746.448.9.9,0,0,0,.013.888L9.552,6.622a.852.852,0,0,0,.734.426h3.428a.852.852,0,0,0,.734-.426L16.162,3.7a.9.9,0,0,0,.013-.888m6.968,16.423H20.571V16.684a1.686,1.686,0,0,0-1.661-1.707H15.428V9.636a1.686,1.686,0,0,0-1.66-1.707H10.232A1.686,1.686,0,0,0,8.571,9.636v3.579H5.089a1.686,1.686,0,0,0-1.66,1.707v4.316H.857A.768.768,0,0,0,0,20.119.768.768,0,0,0,.857,21H23.143A.768.768,0,0,0,24,20.119a.768.768,0,0,0-.857-.881m-14.572,0H5.142V14.977H8.571Zm10.286,0H15.428v-2.5h3.429Z" />
        </g>
    </g>
</svg>