<svg xmlns="http://www.w3.org/2000/svg" width="27.512" height="27.512" viewBox="0 0 27.512 27.512"><defs><style>.a{fill:#ff8f6b;}</style></defs><g transform="translate(-497.9 -1682.9)"><g transform="translate(497.9 1682.9)"><path class="a" d="M0,27.512H7.2v-7.2H0Zm10.163,0h7.2v-7.2h-7.2Zm10.151,0h7.2v-7.2h-7.2ZM0,17.356H7.2v-7.2H0Zm10.163,0h7.2v-7.2h-7.2Zm10.151,0h7.2v-7.2h-7.2ZM0,7.2H7.2V0H0Zm10.163,0h7.2V0h-7.2Zm10.151,0h7.2V0h-7.2Z"/></g><path class="a" d="M518.215,1710.411v-7.2h7.2v7.2Zm-10.151,0v-7.2h7.2v7.2Zm-10.164,0v-7.2h7.2v7.2Zm20.315-10.155v-7.2h7.2v7.2Zm-10.151,0v-7.2h7.2v7.2Zm-10.164,0v-7.2h7.2v7.2Zm20.315-10.156v-7.2h7.2v7.2Zm-10.151,0v-7.2h7.2v7.2Zm-10.164,0v-7.2h7.2v7.2Z"/></g></svg>