<svg xmlns="http://www.w3.org/2000/svg" xmlns:xlink="http://www.w3.org/1999/xlink" width="100%" height="100%"
    viewBox="0 0 24 24">
    <defs>
        <style>
            .a {
                fill: #70708c;
            }

            .b {
                clip-path: url(#a);
            }
        </style>
        <clipPath id="a">
            <rect class="a" width="24" height="24" transform="translate(0 0)" />
        </clipPath>
    </defs>
    <g transform="translate(0 0)">
        <g class="b">
            <path class="a"
                d="M8.9,5.468,7.411,9.387,6.593,5.468H4.122L5.971,13.6H8.139l3.253-8.133Zm6.452,2.865h-.871a1.43,1.43,0,0,1-.479-.042c-.018-.021-.018-.063-.018-.126a.243.243,0,0,1,.035-.148A3.171,3.171,0,0,1,14.467,8h2.986L17.63,5.49H14.005A2.062,2.062,0,0,0,12.476,6,3.137,3.137,0,0,0,11.6,8.039a3.533,3.533,0,0,0,.107,1.243,2.131,2.131,0,0,0,.533.99,1.4,1.4,0,0,0,.675.422,3.351,3.351,0,0,0,.925.105h.906a1.227,1.227,0,0,1,.444.042.279.279,0,0,1,0,.126.243.243,0,0,1-.035.148.053.053,0,0,0-.036.021c-.106,0-.32.021-.622.021H11.463l-.178,2.508H14.8a3.529,3.529,0,0,0,1.333-.19,1.929,1.929,0,0,0,.836-.864,3.808,3.808,0,0,0,.515-1.665,2.383,2.383,0,0,0-.569-1.959,1.9,1.9,0,0,0-1.564-.653M24,18.475a4.218,4.218,0,0,0-4.1-3.959,3.165,3.165,0,0,0-1.642.425l1.916,3.535Zm-6.431-3.252a4.4,4.4,0,0,0,0,7.07l1.916-3.535Zm.547,7.352A3.546,3.546,0,0,0,19.758,23a4.217,4.217,0,0,0,4.105-3.959H20.032Zm-2.362-.86-.132.644H6.3L6.68,20.5h8.476a5.236,5.236,0,0,0,.6,1.214m-.889-2.849H4.1A4.24,4.24,0,0,1,0,14.5V4.366A4.24,4.24,0,0,1,4.1,0H18.2a4.24,4.24,0,0,1,4.1,4.367v9.821a4.882,4.882,0,0,0-1.793-.59V4.684a2.758,2.758,0,0,0-2.531-2.941H4.34A2.757,2.757,0,0,0,1.809,4.684V14.2a2.757,2.757,0,0,0,2.531,2.94H15.112a5.344,5.344,0,0,0-.252,1.62c0,.036,0,.072.005.108" />
        </g>
    </g>
</svg>