<svg xmlns="http://www.w3.org/2000/svg" width="18.689" height="18.342" viewBox="0 0 18.689 18.342"><defs><style>.a{fill:#fff;}</style></defs><g transform="translate(-126.2 -132.6)"><path class="a" d="M141.894,132.6H129.2a3,3,0,0,0-3,3v8.944a3,3,0,0,0,3,3h3.482l1.745,2.785a1.339,1.339,0,0,0,.419.419,1.322,1.322,0,0,0,1.824-.419l1.747-2.785h3.482a3,3,0,0,0,3-3V135.6a3,3,0,0,0-3-3Zm1.966,11.939a1.968,1.968,0,0,1-1.966,1.966h-3.482a1.032,1.032,0,0,0-.872.482l-1.745,2.785a.293.293,0,0,1-.251.137.269.269,0,0,1-.154-.046.292.292,0,0,1-.094-.094l-1.745-2.785a1.027,1.027,0,0,0-.872-.482H129.2a1.968,1.968,0,0,1-1.966-1.966V135.6a1.968,1.968,0,0,1,1.966-1.966h12.7a1.968,1.968,0,0,1,1.966,1.966v8.944Z"/><path class="a" d="M262.264,369.3a1.764,1.764,0,1,0,1.764,1.764A1.765,1.765,0,0,0,262.264,369.3Zm4.472,0a1.764,1.764,0,1,0,1.764,1.764A1.765,1.765,0,0,0,266.736,369.3Zm4.475,0a1.764,1.764,0,1,0,1.764,1.764A1.765,1.765,0,0,0,271.211,369.3Z" transform="translate(-131.064 -230.997)"/></g></svg>