<svg xmlns="http://www.w3.org/2000/svg" width="17.574" height="16.788" viewBox="0 0 17.574 16.788"><defs><style>.a{fill:#fff;}</style></defs><g transform="translate(-552.771 -171.615)"><path class="a" d="M916.859,217.126h8.619v1.493h-8.619Z" transform="translate(-355.133 -44.392)"/><path class="a" d="M558.99,550.874h-4.977a1.244,1.244,0,0,0-1.243,1.243v4.974a1.244,1.244,0,0,0,1.243,1.243h4.974a1.244,1.244,0,0,0,1.243-1.243v-4.974A1.241,1.241,0,0,0,558.99,550.874Zm-.25,5.277a.693.693,0,0,1-.693.693h-3.092a.693.693,0,0,1-.693-.693v-3.092a.693.693,0,0,1,.693-.693h3.095a.693.693,0,0,1,.693.693v3.092Z" transform="translate(0 -369.931)"/><path class="a" d="M916.859,596.385h8.619v1.492h-8.619Z" transform="translate(-355.133 -414.323)"/><path class="a" d="M558.99,171.615h-4.977a1.244,1.244,0,0,0-1.243,1.243v4.974a1.244,1.244,0,0,0,1.243,1.243h4.974a1.244,1.244,0,0,0,1.243-1.243v-4.974a1.241,1.241,0,0,0-1.241-1.243Zm-.25,5.277a.693.693,0,0,1-.693.693h-3.092a.693.693,0,0,1-.693-.693V173.8a.693.693,0,0,1,.693-.693h3.095a.693.693,0,0,1,.693.693v3.092Z"/><path class="a" d="M916.859,368.83h8.619v1.493h-8.619Zm0,9.328h8.619v1.492h-8.619Z" transform="translate(-355.133 -192.365)"/></g></svg>